<?xml version="1.0" standalone="no"?>
<!DOCTYPE svg PUBLIC "-//W3C//DTD SVG 1.1//EN" "http://www.w3.org/Graphics/SVG/1.1/DTD/svg11.dtd" >
<svg xmlns="http://www.w3.org/2000/svg" xmlns:xlink="http://www.w3.org/1999/xlink" version="1.1">
<metadata>
Created by FontForge 20170731 at Sun Aug 21 12:42:48 2011
 By Aleksey,,,
Copyright \(c\) 1996 Bayer Corporation. All rights reserved. Pompei is designed by Albert Boton. All rights reserved.
</metadata>
<defs>
<font id="PompeiNewW00-Light" horiz-adv-x="550" >
  <font-face 
    font-family="PompeiNewW00-Light"
    font-weight="300"
    font-stretch="normal"
    units-per-em="1000"
    panose-1="2 0 5 5 7 0 0 2 0 3"
    ascent="788"
    descent="-212"
    x-height="497"
    cap-height="747"
    bbox="-86 -275 1580 1016"
    underline-thickness="50"
    underline-position="-175"
    unicode-range="U+0020-FB02"
  />
<missing-glyph horiz-adv-x="276" 
 />
    <glyph glyph-name=".notdef" horiz-adv-x="276" 
 />
    <glyph glyph-name="glyph1" horiz-adv-x="0" 
 />
    <glyph glyph-name="glyph2" horiz-adv-x="0" 
 />
    <glyph glyph-name="space" unicode=" " horiz-adv-x="219" 
 />
    <glyph glyph-name="exclam" unicode="!" horiz-adv-x="365" 
d="M218 146h-56l-23 601h101zM248 43q0 -24 -17.5 -41.5t-41.5 -17.5q-25 0 -42 17.5t-17 41.5q0 25 17 42t42 17q24 0 41.5 -17t17.5 -42z" />
    <glyph glyph-name="quotedbl" unicode="&#x22;" horiz-adv-x="392" 
d="M311 529h-65l-16 217h98zM146 529h-66l-16 217h98z" />
    <glyph glyph-name="numbersign" unicode="#" horiz-adv-x="716" 
d="M635 449h-126l-29 -151h128l-11 -58h-127l-45 -240h-48l45 240h-183l-45 -240h-48l45 240h-125l11 58h124l29 151h-126l11 58h125l45 240h48l-45 -240h183l45 240h48l-45 -240h127zM278 449l-29 -151h183l29 151h-183z" />
    <glyph glyph-name="dollar" unicode="$" 
d="M496 182q0 -42 -15 -76t-41 -59t-61 -40.5t-74 -20.5v-85h-53v82q-30 1 -52.5 4.5t-39 7.5t-26.5 7t-15 3q-24 0 -30 -9l-12 -1l-22 164l9 5q7 -29 25 -53t43 -41t56 -27t64 -11v303q-34 21 -66.5 42.5t-58 48.5t-41.5 62t-16 84q0 81 49 129t133 56v81h53v-79
q22 -1 37 -4t26.5 -6.5t21 -6t18.5 -2.5q5 0 14.5 0.5t14.5 5.5h11l1 -151l-7 -3q-11 48 -45.5 80.5t-91.5 37.5v-284l6 -4q20 -13 51.5 -32t61 -47t51 -67.5t21.5 -93.5zM252 708q-28 -5 -47.5 -16.5t-31.5 -27.5t-17.5 -35t-5.5 -38q0 -24 8 -42.5t22 -34.5t32.5 -29
t39.5 -26v249zM413 156q0 27 -7.5 47t-21 36.5t-34 31t-45.5 30.5v-265q52 11 80 44t28 76z" />
    <glyph glyph-name="percent" unicode="%" horiz-adv-x="1137" 
d="M1098 242q0 -61 -15 -109.5t-42 -82t-64.5 -51.5t-82.5 -18q-44 0 -79.5 20.5t-61 56t-39.5 82t-14 98.5q0 46 10.5 93t34.5 84t62 60.5t92 23.5q50 0 87.5 -22t62 -58t37 -82.5t12.5 -94.5zM418 -54h-68l379 854h69zM437 496q0 -61 -15 -109.5t-42 -82t-64.5 -51.5
t-82.5 -18q-44 0 -79.5 20.5t-61 56t-39.5 82t-14 98.5q0 46 10.5 93t34.5 84t62 60.5t92 23.5q50 0 87.5 -22t62 -58t37 -82.5t12.5 -94.5zM1007 231q0 121 -29.5 175t-79.5 54t-79 -53t-29 -170q0 -66 10 -108t25.5 -66t35 -33t38.5 -9q26 0 46.5 15.5t34 43t20.5 66
t7 85.5zM346 485q0 121 -29.5 175t-79.5 54t-79 -53t-29 -170q0 -66 10 -108t25.5 -66t35 -33t38.5 -9q26 0 46.5 15.5t34 43t20.5 66t7 85.5z" />
    <glyph glyph-name="ampersand" unicode="&#x26;" horiz-adv-x="839" 
d="M639 138q10 -8 29 -25.5t42 -34.5q18 -14 41.5 -27t47.5 -13q27 0 41 23l18 -8q-14 -28 -35.5 -50t-53.5 -22q-29 0 -53.5 10t-46.5 25t-42 32.5t-39 32.5q-53 -54 -115.5 -76t-134.5 -23q-44 0 -92.5 11t-89.5 35t-68 63.5t-27 96.5q0 42 16 78t41 66.5t56.5 55.5
t61.5 46q-24 30 -43.5 67t-19.5 78q0 42 15 75.5t40 57t58.5 36t71.5 12.5q26 0 53 -6.5t48.5 -21t35.5 -37.5t14 -55q0 -24 -6.5 -42t-16 -32t-21.5 -25t-24 -20q-27 -21 -57 -42t-59 -42q26 -28 38 -41t24 -25t31.5 -30.5t60.5 -57.5l118 -108l1 -1q18 31 30 64t12 71
q0 35 -13.5 55.5t-54.5 20.5q-27 0 -44 -10.5t-26 -24.5l-19 16q3 8 18 27.5t41 30.5q14 5 29 8t29 4q16 1 32 1h185q17 0 31.5 1.5t24.5 4.5l4 -6l-25 -41q-4 -4 -7.5 -8t-12 -7t-24.5 -4.5t-43 -1.5h-44q0 -68 -23 -127.5t-59 -109.5zM356 31q22 0 50 6t55.5 17.5
t50.5 27.5t37 36l-89 84q-30 28 -49 46t-31.5 30t-22 21.5t-21 21.5t-27.5 29.5t-43 46.5q-47 -32 -79 -75t-32 -106q0 -46 16.5 -81t44 -58t64 -35t76.5 -11zM335 501q18 13 36.5 26t33.5 28.5t24 34.5t9 44q0 44 -21 63.5t-64 19.5q-25 0 -46 -10t-36 -27t-23 -40t-8 -49
q0 -32 17.5 -64t37.5 -54z" />
    <glyph glyph-name="quotesingle" unicode="'" horiz-adv-x="226" 
d="M145 531h-64l-17 216h98z" />
    <glyph glyph-name="parenleft" unicode="(" horiz-adv-x="344" 
d="M279 771q-13 -17 -30.5 -47t-33.5 -86t-27.5 -143.5t-11.5 -218.5q0 -112 8 -188.5t21.5 -128.5t32 -85.5t39.5 -60.5l-20 -17q-19 19 -49.5 54.5t-59.5 93t-50 141t-21 199.5q0 114 21 200t50.5 147.5t60.5 99.5t51 56l19 -16v0z" />
    <glyph glyph-name="parenright" unicode=")" horiz-adv-x="344" 
d="M267 284q0 -116 -21 -199.5t-50 -141t-59.5 -93t-49.5 -54.5l-20 17q21 27 39.5 60.5t32 85.5t21.5 128.5t8 188.5q0 131 -11.5 218.5t-27.5 143.5t-33.5 86t-30.5 47l19 16q20 -18 51 -56t60.5 -99.5t50.5 -147.5t21 -200z" />
    <glyph glyph-name="asterisk" unicode="*" horiz-adv-x="468" 
d="M287 575l71 -87l-58 -42l-62 92l-63 -92l-58 42l70 87l-110 31l23 68l104 -42l-6 115h72l-5 -115l106 42l23 -68z" />
    <glyph glyph-name="plus" unicode="+" 
d="M299 222v-222h-52v222h-209v52h209v222h52v-222h211v-52h-211z" />
    <glyph glyph-name="comma" unicode="," horiz-adv-x="271" 
d="M87 -134h-61l80 203h111z" />
    <glyph glyph-name="hyphen" unicode="-" 
d="M81 224v52h403v-52h-403z" />
    <glyph glyph-name="period" unicode="." horiz-adv-x="238" 
d="M178 43q0 -24 -17.5 -41.5t-41.5 -17.5q-25 0 -42 17.5t-17 41.5q0 25 17 42t42 17q24 0 41.5 -17t17.5 -42z" />
    <glyph glyph-name="slash" unicode="/" horiz-adv-x="448" 
d="M133 -59h-61l281 873h61z" />
    <glyph glyph-name="zero" unicode="0" 
d="M518 368q0 -91 -16 -162.5t-46.5 -121.5t-74.5 -76.5t-99 -26.5q-57 0 -101.5 26.5t-75 74.5t-46.5 115t-16 148q0 208 62 312t181 104q63 0 107 -34.5t71.5 -90t40.5 -126t13 -142.5zM422 357q0 97 -10.5 165.5t-29 112t-44.5 63.5t-57 20q-63 0 -102 -84.5t-39 -249.5
q0 -110 13 -179.5t34 -109.5t48 -54.5t54 -14.5q39 0 64.5 25.5t41 70.5t21.5 105.5t6 129.5z" />
    <glyph glyph-name="one" unicode="1" 
d="M199 0v8q16 3 25 7.5t14 17t6.5 35.5t1.5 64v444q0 36 -3.5 56t-15.5 29t-34.5 10.5t-59.5 1.5v18l210 72v-635q0 -39 1.5 -60.5t6 -33.5t14 -17t24.5 -9v-8h-190z" />
    <glyph glyph-name="two" unicode="2" 
d="M487 0h-449v8q3 3 14 17t28 34.5t37.5 45.5t41.5 51q49 60 110 133q26 31 47.5 64.5t36.5 65t23.5 61t8.5 53.5q0 37 -11.5 66t-32 49.5t-48.5 31.5t-61 11q-29 0 -51 -7.5t-39 -19t-29.5 -25t-21.5 -26.5l-28 16q7 19 23 42.5t42.5 44t63 34t84.5 13.5t86 -17
t64.5 -45.5t40.5 -65.5t14 -78q0 -42 -17 -84t-43 -82t-57 -77t-59 -68l-144 -160h286q15 0 27.5 4.5t16.5 19.5l10 -3z" />
    <glyph glyph-name="three" unicode="3" 
d="M81 -73q-9 8 -18 15t-17 15q28 5 59 17t61 28t57 35t47 39q34 35 55.5 78.5t21.5 93.5q0 29 -7.5 55.5t-23 46.5t-39.5 31.5t-56 11.5q-21 0 -42 -4t-39 -9l-1 44q33 6 64.5 20.5t56 36t39.5 51t15 66.5q0 53 -31.5 85t-84.5 30q-34 -1 -59.5 -13t-51.5 -33l-19 34
q31 33 71 47.5t85 14.5q35 0 68 -7t58.5 -24t41 -46t15.5 -73q0 -34 -11 -65t-35 -54q-29 -30 -53.5 -40.5t-46.5 -18.5q41 6 77.5 -6t63.5 -40q24 -25 34.5 -59t10.5 -69q0 -57 -22.5 -108t-64.5 -93q-26 -26 -59.5 -47.5t-70 -38.5t-75 -29t-74.5 -18z" />
    <glyph glyph-name="four" unicode="4" 
d="M425 248v-120q0 -39 1.5 -60.5t6 -33.5t13.5 -17t24 -9v-8h-183v8q15 3 24.5 7.5t14 17t6 35.5t1.5 64v116h-330v46l383 453h39v-441h102v-58h-102zM334 618l-264 -312h264v312z" />
    <glyph glyph-name="five" unicode="5" 
d="M88 -72q-9 6 -18 13.5t-18 15.5q57 10 114 33t103 60t75 87.5t29 115.5q0 35 -11.5 66.5t-32.5 55t-50.5 37.5t-66.5 14q-28 0 -55 -7.5t-49 -20.5v17.5v14t0.5 24.5t1 50t1.5 91t3 147h-1h296q10 2 19 7.5t14 15.5l2 10l9 -2l-17 -121h-272q-1 -45 -2 -84
q-1 -33 -1 -63.5v-38.5q20 8 44 13t48 5q49 0 89.5 -16.5t69 -46t44.5 -70.5t16 -90q0 -72 -36.5 -129t-93 -98.5t-124 -68t-130.5 -37.5z" />
    <glyph glyph-name="six" unicode="6" 
d="M284 -18q-64 0 -108 30t-71 77t-39 105.5t-12 115.5q0 35 6.5 76t21.5 84t38.5 85.5t58.5 79.5q52 56 111 89t131 51q6 -8 13.5 -13t15.5 -12q-63 -16 -115 -50t-90 -81.5t-62 -104.5t-30 -118q27 44 69 61.5t90 16.5q30 0 58.5 -9t52.5 -26.5t42.5 -42t28.5 -56.5
q17 -56 17 -115q-1 -56 -17.5 -100.5t-46 -76.5t-71 -49t-92.5 -17zM422 234q0 35 -7.5 70t-24 63.5t-42.5 46t-63 17.5q-40 0 -66.5 -19t-42.5 -48.5t-22.5 -65.5t-6.5 -72q0 -35 7.5 -71.5t23.5 -66.5t42 -49t64 -19q40 0 66.5 19.5t42.5 50.5t22.5 69t6.5 75z" />
    <glyph glyph-name="seven" unicode="7" 
d="M225 -72h-79l264 724h-262q-19 0 -31.5 -5.5t-20.5 -25.5h-8v126h413z" />
    <glyph glyph-name="eight" unicode="8" 
d="M509 195q0 -11 -3 -31t-11.5 -43t-24.5 -47t-41.5 -43.5t-62 -31.5t-86.5 -12q-37 0 -76.5 8t-72.5 29t-54.5 59t-21.5 98q0 44 15 78.5t37 59.5t47.5 41.5t47.5 25.5q-64 34 -94.5 75t-30.5 109q0 46 18 82t48 61t69 38.5t82 13.5q41 0 77.5 -11.5t63.5 -33.5t43 -53
t16 -70q0 -43 -19 -76t-44 -57t-49.5 -39t-34.5 -22q27 -17 56 -33.5t52.5 -40t38.5 -55.5t15 -79zM424 591q0 54 -33 91t-104 37q-20 0 -44 -6.5t-45 -20.5t-35 -37t-14 -57t16.5 -60t39.5 -46t49 -35t45 -27q6 3 26.5 14.5t42 31t39 48.5t17.5 67zM440 166q0 30 -7.5 52
t-29 42t-60 42.5t-100.5 54.5q-12 -7 -32 -18.5t-38.5 -31t-32.5 -49.5t-14 -74q0 -38 12 -66.5t32.5 -48.5t48.5 -30t60 -10t61 9t51.5 26.5t35.5 43t13 58.5z" />
    <glyph glyph-name="nine" unicode="9" 
d="M381 41q-51 -55 -112.5 -80t-129.5 -33l-30 30q57 9 111 31.5t96 66.5q25 27 43 62t29.5 73.5t18 79t8.5 77.5q-23 -50 -66.5 -71.5t-92.5 -21.5q-51 0 -90 19.5t-65 53t-39 78.5t-13 96q0 55 14.5 102.5t42 82t68.5 54.5t94 20q49 0 86 -14t68 -48q25 -28 41 -63.5
t25 -75t12 -80.5t3 -79q0 -48 -7 -97.5t-22 -96.5t-38 -89.5t-55 -76.5zM272 301q39 0 66.5 17t45 45.5t25 65t7.5 75.5q0 37 -6.5 75.5t-22.5 70t-43.5 51.5t-67.5 19q-39 -1 -66.5 -21t-44.5 -51t-25 -69.5t-8 -75.5q0 -36 8 -72t25 -65t43.5 -47t63.5 -18z" />
    <glyph glyph-name="colon" unicode=":" horiz-adv-x="280" 
d="M204 457q0 -24 -17 -41.5t-42 -17.5t-42 17.5t-17 41.5q0 25 17 42t42 17t42 -17t17 -42zM204 43q0 -24 -17 -41.5t-42 -17.5t-42 17.5t-17 41.5q0 25 17 42t42 17t42 -17t17 -42z" />
    <glyph glyph-name="semicolon" unicode=";" horiz-adv-x="271" 
d="M195 457q0 -24 -17 -41.5t-42 -17.5t-42 17.5t-17 41.5q0 25 17 42t42 17t42 -17t17 -42zM80 -134h-54l80 203h111z" />
    <glyph glyph-name="less" unicode="&#x3c;" horiz-adv-x="589" 
d="M538 535v-56l-413 -187l413 -184v-57l-476 214v55z" />
    <glyph glyph-name="equal" unicode="=" 
d="M52 318v53h470v-53h-470zM52 128v52h470v-52h-470z" />
    <glyph glyph-name="greater" unicode="&#x3e;" horiz-adv-x="589" 
d="M62 51v56l413 187l-413 184v57l476 -214v-55z" />
    <glyph glyph-name="question" unicode="?" horiz-adv-x="478" 
d="M433 560q0 -47 -23 -89.5t-53 -79t-60 -67t-45 -53.5t-20 -54t-5 -68h-46q-1 8 -1 17q-1 8 -1 15.5v13.5q0 40 10 66.5t30 54.5q13 18 33 42t39 53t32.5 62t13.5 69q0 20 -6.5 46.5t-23 50t-46.5 40t-76 16.5q-26 0 -47 -7t-38 -18.5t-31 -25.5t-24 -28l-26 14
q15 27 34 51.5t44.5 42.5t57 28.5t71.5 10.5q46 0 84.5 -15.5t65.5 -43t42 -64.5t15 -80zM265 43q0 -24 -17 -41.5t-42 -17.5t-42 17.5t-17 41.5q0 25 17 42t42 17t42 -17t17 -42z" />
    <glyph glyph-name="at" unicode="@" horiz-adv-x="832" 
d="M783 517q0 -67 -21.5 -127t-57.5 -105.5t-82 -72t-94 -26.5q-26 0 -40.5 8.5t-21 20.5t-7 26t0.5 25q-7 -8 -20.5 -21t-32 -25.5t-41 -22t-47.5 -9.5q-23 0 -39.5 11t-27.5 28t-16.5 38t-5.5 41q0 40 18 87.5t50 88t76 67.5t96 27q40 0 75.5 -10t49.5 -19l-52 -243
q-9 -41 0 -56t24 -15q32 0 63 24t55 63t38.5 88.5t14.5 99.5q0 47 -15.5 86.5t-46 68.5t-76.5 45.5t-107 16.5q-74 0 -131.5 -20t-101 -53.5t-74 -76.5t-49.5 -88.5t-27.5 -90.5t-8.5 -82q0 -83 27.5 -139.5t69.5 -91t91.5 -49.5t93.5 -15q57 0 103 11.5t80.5 27.5t57.5 33
t34 27l13 -32q-9 -11 -30.5 -28.5t-56 -34.5t-83.5 -29.5t-113 -12.5q-65 0 -127.5 21t-111.5 62.5t-78.5 102.5t-29.5 141q0 29 7.5 73.5t27 95.5t52.5 102.5t83.5 92.5t120 67t163.5 26q62 0 114.5 -16.5t91 -48t60.5 -77.5t22 -106zM515 529q-4 2 -17.5 6t-28.5 4
q-33 0 -62 -20.5t-50.5 -53.5t-34 -74t-12.5 -81q0 -32 12 -52t39 -20q17 0 36.5 12t37 32t31 46t19.5 54z" />
    <glyph glyph-name="A" unicode="A" horiz-adv-x="701" 
d="M504 0v8q11 1 17 7t8.5 14t1.5 18t-4 19l-70 193h-268l-70 -199q-2 -6 -3 -14.5t1 -16.5t9 -14t21 -7v-8h-143v8q7 1 15.5 6.5t15.5 13.5t12.5 16.5t8.5 16.5l233 638q7 18 -3 27.5t-18 12.5v8h108l261 -683q9 -23 23 -38t34 -18v-8h-190zM321 629l-115 -321h233z" />
    <glyph glyph-name="B" unicode="B" horiz-adv-x="709" 
d="M632 188q0 -44 -18 -79t-49.5 -59t-73 -37t-88.5 -13h-303v8q23 3 34 21t11 58v573q0 37 -10 56.5t-35 22.5v8h275q58 0 100.5 -15t70.5 -39.5t42 -57t14 -68.5q0 -47 -17 -79t-43 -52.5t-56.5 -31t-56.5 -14.5q4 0 20.5 -2t39 -9t47.5 -20.5t46.5 -35.5t35.5 -55.5
t14 -79.5zM505 552q0 36 -9.5 61.5t-23.5 42t-31 26t-32.5 14.5t-27.5 6t-15 1h-126v-293h119q3 0 15 1t28 6t34.5 14t33.5 24.5t25 39t10 57.5zM531 197q0 52 -16 85t-41 51.5t-55.5 25t-60.5 6.5h-118v-278q0 -12 4 -20.5t15 -14.5t31.5 -8.5t53.5 -2.5q98 0 142.5 42
t44.5 114z" />
    <glyph glyph-name="C" unicode="C" horiz-adv-x="753" 
d="M707 11h-4l-6 4t-16 2q-5 0 -22.5 -4.5t-44 -10.5t-60.5 -10.5t-71 -4.5q-81 0 -155 26.5t-130.5 78t-89.5 126t-33 170.5q0 76 29.5 143t83 117.5t128 80t164.5 29.5q34 0 64 -3t53 -6.5t37.5 -6.5t18.5 -3q8 0 13 2.5t8 4.5h6l33 -134l-10 -2q-12 19 -34 36t-50.5 30
t-62.5 21t-72 8q-67 0 -123.5 -24t-97 -66t-63 -99.5t-22.5 -124.5q0 -81 24 -146t67 -110.5t103 -70t132 -24.5q31 0 64 7.5t63 22t54.5 36.5t40.5 51l10 -2z" />
    <glyph glyph-name="D" unicode="D" horiz-adv-x="828" 
d="M768 372q0 -66 -18 -119.5t-48 -95t-69.5 -71.5t-83 -49t-87 -28t-82.5 -9h-280v8q9 1 17 4t13 11t8 23t3 41v573q0 37 -8 56.5t-33 22.5v8h272q99 0 173.5 -34t124 -88t74 -120.5t24.5 -132.5zM664 357q0 74 -20 136.5t-58.5 107.5t-94.5 70t-128 25h-122v-596
q0 -32 19.5 -40.5t64.5 -8.5q79 0 142 21t107 60.5t67 96.5t23 128z" />
    <glyph glyph-name="E" unicode="E" horiz-adv-x="593" 
d="M546 0h-441v8q23 3 31.5 21t8.5 58v573q0 37 -10 56.5t-35 22.5v8h276h156l-14 -92l-10 1q-1 9 -4.5 16.5t-17 12t-41.5 7t-78 2.5h-122v-278h115q52 0 81 1t43.5 5t19.5 10t9 17h11v-127h-11q-3 14 -11 22t-25 12t-45 5t-73 1h-114v-261q0 -21 4.5 -31.5t16.5 -14
t34 -3.5h57q57 0 94 2.5t61.5 9.5t40 19t30.5 31l10 -5z" />
    <glyph glyph-name="F" unicode="F" horiz-adv-x="542" 
d="M504 651l-9 3q1 12 -4 20t-19.5 12.5t-39.5 6t-65 1.5h-122v-286h95q51 0 80.5 2t45 6.5t21 11.5t9.5 18h8v-130h-8q-4 16 -9.5 24t-21.5 11.5t-45.5 4t-80.5 0.5h-94v-256q0 -52 14.5 -70.5t28.5 -18.5v-11h-183v8q23 3 31.5 21t8.5 58v573q0 24 -3.5 39t-9.5 23.5
t-14 12t-18 4.5v8h419z" />
    <glyph glyph-name="G" unicode="G" horiz-adv-x="797" 
d="M754 343q-37 -4 -37 -55v-261l-13.5 -6.5t-42 -14t-73 -13.5t-105.5 -6q-83 0 -157 26.5t-130 77.5t-88.5 126t-32.5 171q0 37 8.5 78.5t28 82.5t51 79t77 66.5t106.5 45.5t139 17q33 0 58 -3t44.5 -6t34.5 -6t29 -3q8 0 13 2.5t8 4.5h6l31 -139h-12q-12 19 -32 36.5
t-46 31t-58.5 21.5t-70.5 8q-66 0 -122 -22.5t-97.5 -63.5t-65 -100t-23.5 -132q0 -81 23 -145.5t63.5 -109t95 -68t118.5 -23.5q31 0 53.5 2t37.5 5t24.5 6.5t15.5 6.5v226q0 21 -9.5 39t-32.5 20v9h183v-11v0z" />
    <glyph glyph-name="H" unicode="H" horiz-adv-x="905" 
d="M612 0v8q32 4 38.5 21t6.5 58v276h-412v-273q0 -26 2 -41.5t7.5 -24t15 -11.5t23.5 -5v-8h-193v8q32 4 38.5 21t6.5 58v573q0 26 -1.5 41t-6 22.5t-13.5 10.5t-24 5v8h193v-8q-14 -2 -23.5 -5t-15 -11.5t-7.5 -24t-2 -41.5v-241h412v244q0 26 -1.5 41t-6 22.5t-13.5 10.5
t-24 5v8h193v-8q-14 -2 -23.5 -5t-15 -11.5t-7.5 -24t-2 -41.5v-567q0 -26 2 -41.5t7.5 -24t15 -11.5t23.5 -5v-8h-193z" />
    <glyph glyph-name="I" unicode="I" horiz-adv-x="393" 
d="M100 0v8q32 4 38.5 21t6.5 58v573q0 26 -1.5 41t-6 22.5t-13.5 10.5t-24 5v8h193v-8q-14 -2 -23.5 -5t-15 -11.5t-7.5 -24t-2 -41.5v-567q0 -26 2 -41.5t7.5 -24t15 -11.5t23.5 -5v-8h-193z" />
    <glyph glyph-name="J" unicode="J" horiz-adv-x="399" 
d="M299 739q-11 -2 -19 -5.5t-13.5 -12t-8 -24t-2.5 -40.5v-697q0 -62 -18 -102.5t-44.5 -65t-57 -34.5t-54.5 -10q-37 0 -55 5.5t-29 10.5l6 19q8 -5 22.5 -7t25.5 -2q22 0 42 6.5t35 26.5t23.5 56t8.5 96v701q0 47 -15 62t-33 17v8h186v-8v0z" />
    <glyph glyph-name="K" unicode="K" horiz-adv-x="682" 
d="M545 0l-296 390l238 269q7 9 15.5 20t12.5 22t0 21.5t-22 16.5v8h162v-8q-11 -3 -23 -9q-11 -5 -23.5 -13.5t-23.5 -21.5l-246 -277l286 -366q9 -12 27 -26.5t40 -17.5v-8h-147zM101 0v8q20 2 30 18.5t10 60.5v573q0 24 -3.5 39.5t-9 24t-13 11.5t-15.5 4v8h179v-8
q-23 -3 -32.5 -23t-9.5 -59l-2 -267l1 -300q0 -26 3 -41.5t9 -24t14.5 -12t19.5 -4.5v-8h-181z" />
    <glyph glyph-name="L" unicode="L" horiz-adv-x="592" 
d="M536 0h-441v8q23 3 31.5 21t8.5 58v573q0 37 -10 56.5t-35 22.5v8h194v-8q-9 -1 -18 -4t-15.5 -11t-11 -22.5t-4.5 -39.5v-562q0 -21 4.5 -31.5t16.5 -14t34 -3.5h57q57 0 94 2.5t61.5 9.5t40 19t30.5 31l10 -5z" />
    <glyph glyph-name="M" unicode="M" horiz-adv-x="1009" 
d="M761 0v8q13 2 20.5 10t11 19t3.5 23t-1 22l-67 574l-251 -671h-5l-255 675l-65 -605q-1 -6 0.5 -14t5.5 -15.5t10.5 -12.5t15.5 -5v-8h-126v8q21 5 30.5 26.5t12.5 48.5l65 611q5 40 -33 45v8h148l212 -576l217 576h147v-8q-7 -2 -14.5 -4.5t-13 -9.5t-8 -18t-0.5 -29
l71 -616q1 -7 3.5 -15.5t7.5 -16.5t12 -14.5t16 -7.5v-8h-170z" />
    <glyph glyph-name="N" unicode="N" horiz-adv-x="842" 
d="M762 739q-20 -4 -31.5 -21.5t-11.5 -55.5v-682l-540 649v-544q0 -29 9 -50.5t34 -26.5v-8h-142v8q9 2 17.5 5.5t15 11.5t10 22t3.5 36v571q0 24 -2.5 39t-7.5 24.5t-13.5 14t-20.5 7.5v8h129l454 -553v464q0 24 -2 39t-7.5 23t-13.5 12t-20 7v8h140v-8v0z" />
    <glyph glyph-name="O" unicode="O" horiz-adv-x="906" 
d="M836 374q0 -84 -27 -155.5t-76.5 -124t-120.5 -82t-159 -29.5q-101 0 -173.5 34.5t-119 89.5t-68.5 124.5t-22 140.5q0 74 21 144.5t67 125.5t119 88.5t176 33.5q108 0 181.5 -32.5t118 -86.5t64 -124.5t19.5 -146.5zM728 372q0 70 -20 132t-56.5 108t-87.5 73t-112 27
q-62 0 -112.5 -21t-86.5 -63t-55.5 -105.5t-19.5 -148.5q0 -78 17.5 -140.5t52 -107t86.5 -68t121 -23.5q61 0 111 21.5t86 64t56 105.5t20 146z" />
    <glyph glyph-name="P" unicode="P" horiz-adv-x="581" 
d="M564 540q0 -48 -18 -84t-47.5 -61t-66.5 -37.5t-75 -12.5q-15 0 -32 1t-28 5l-21 43q13 -2 21 -3t21 -1q31 1 58 11t46.5 29t31 46t11.5 62q0 41 -13 71.5t-34.5 51t-50.5 30.5t-61 10h-71v-611q0 -48 13 -63.5t35 -18.5v-8h-187v8q23 3 31 21t8 58v573q0 37 -10 56.5
t-35 22.5v8h210q58 0 106.5 -11.5t83.5 -36.5t54.5 -64.5t19.5 -94.5z" />
    <glyph glyph-name="Q" unicode="Q" horiz-adv-x="913" 
d="M800 -184l-374 169q-72 4 -126 27t-93.5 57t-65.5 75.5t-41.5 83t-22 79t-6.5 64.5q0 79 22.5 149.5t70 123t119.5 83t171 30.5q67 0 121 -16.5t96.5 -44.5t73.5 -66t51.5 -80.5t30.5 -87.5t10 -88q0 -77 -18.5 -141t-54.5 -113t-88.5 -81.5t-119.5 -45.5l291 -106
q11 -4 25.5 -1t22.5 8l6 -9zM728 373q0 69 -19.5 130.5t-55.5 107.5t-87 72.5t-113 26.5q-55 0 -104.5 -20.5t-87 -62.5t-60 -106t-22.5 -151q0 -60 16 -120.5t50 -108.5t87.5 -78t127.5 -30q60 0 109.5 22.5t85 65.5t54.5 106.5t19 145.5z" />
    <glyph glyph-name="R" unicode="R" horiz-adv-x="669" 
d="M560 0l-230 337q-7 -2 -18.5 -2.5t-24.5 -0.5h-26h-24v-244q0 -24 3.5 -39t9.5 -23.5t15 -12.5t20 -7v-8h-179v8q23 3 31 21t8 58v573q0 37 -10 56.5t-35 22.5v8h210q25 0 66.5 -7t82 -28.5t70 -62.5t29.5 -108q0 -37 -12.5 -66.5t-33 -51.5t-45 -37.5t-48.5 -25.5
l208 -289q23 -32 45 -45t34 -15v-11h-146zM459 534q0 43 -13 74.5t-36 52t-54.5 30.5t-68.5 10h-50v-325h22q57 0 95.5 13.5t62 35.5t33 50.5t9.5 58.5z" />
    <glyph glyph-name="S" unicode="S" horiz-adv-x="573" 
d="M515 182q0 -47 -19 -84t-50.5 -62.5t-73 -39t-87.5 -13.5q-33 0 -58.5 3.5t-43.5 7.5t-29 7.5t-16 3.5q-24 0 -30 -9l-12 -1l-22 164l9 5q8 -30 26.5 -54.5t45 -41.5t58.5 -26.5t67 -9.5q36 0 64.5 10t48 26.5t29.5 39t10 48.5q0 33 -10.5 55.5t-30 41t-47.5 36t-64 40.5
q-35 22 -69 44t-61 49.5t-44 63.5t-17 86q0 44 15.5 79t44 59t68 36.5t88.5 12.5q27 0 46 -3t32.5 -6.5t23.5 -6.5t20 -3q5 0 14.5 0.5t14.5 5.5h11l1 -151l-7 -3q-11 51 -51 85t-106 34q-37 0 -63 -10.5t-42 -27.5t-23 -38.5t-7 -43.5q0 -32 14.5 -55.5t38 -42.5t52 -35.5
t56.5 -35.5q20 -14 51.5 -32.5t61 -46.5t51 -67.5t21.5 -93.5z" />
    <glyph glyph-name="T" unicode="T" horiz-adv-x="623" 
d="M616 652l-10 1q-2 17 -7.5 26t-20.5 12.5t-42 4t-72 0.5h-106v-606q0 -26 2 -41.5t7.5 -24t15 -11.5t23.5 -5v-8h-193v8q16 2 25 7t13 14t5 23t1 35v609h-95q-49 0 -77 -1.5t-42.5 -6t-19 -12.5t-4.5 -21l-10 -3l-23 95h651z" />
    <glyph glyph-name="U" unicode="U" horiz-adv-x="887" 
d="M652 0q-1 5 -3 16.5t-4 25.5t-3.5 28.5t-2.5 24.5q-8 -16 -26 -36t-46.5 -37.5t-69 -29.5t-92.5 -12q-21 0 -48.5 3.5t-56.5 13t-57 26.5t-49.5 45t-35 68t-13.5 95v406q0 31 -3.5 50.5t-10.5 30.5t-16 15.5t-20 5.5v8h194v-8q-8 -3 -16 -6.5t-14.5 -13.5t-10.5 -29
t-4 -52v-402q0 -91 47.5 -144.5t139.5 -53.5q36 0 72 10.5t65.5 34t48 61t18.5 91.5v407q0 20 -1 36.5t-6 29.5t-15 21t-27 10v8h193v-8q-11 -2 -19 -5.5t-13.5 -14t-8.5 -29.5t-3 -52v-477q0 -74 10 -113.5t42 -39.5v-8h-135z" />
    <glyph glyph-name="V" unicode="V" horiz-adv-x="652" 
d="M673 739q-20 -3 -34.5 -19t-22.5 -36l-293 -708l-305 725q-13 31 -39 38v8h182v-8q-18 -3 -26 -19.5t3 -41.5l217 -514l201 516q11 27 0.5 41.5t-27.5 17.5v8h144v-8v0z" />
    <glyph glyph-name="W" unicode="W" horiz-adv-x="1062" 
d="M1095 739q-27 -4 -40 -20t-20 -35l-266 -713l-225 599l-225 -599l-268 709q-11 31 -29 45t-38 14v8h214v-8q-24 -2 -36.5 -15.5t-1.5 -43.5l183 -494l225 598l224 -604l184 505q8 22 0 36.5t-25 17.5v8h144v-8v0z" />
    <glyph glyph-name="X" unicode="X" horiz-adv-x="657" 
d="M435 0v8q29 4 32 26t-16 57l-130 241l-161 -273q-10 -17 -4 -31.5t23 -19.5v-8h-159v8q27 8 47 26t44 58l174 283l-147 252q-12 21 -23 40t-23 33.5t-27 24.5t-35 14v8h221v-8q-21 -5 -28 -23t6 -42l124 -231l135 234q9 15 10 25.5t-3 18t-12 12t-18 6.5v8h165v-8
q-22 -6 -36 -16.5t-30 -36.5l-175 -285l200 -345q11 -20 25.5 -33t34.5 -15v-8h-214z" />
    <glyph glyph-name="Y" unicode="Y" horiz-adv-x="640" 
d="M643 739q-24 -3 -38.5 -16.5t-30.5 -43.5l-206 -384v-233q0 -25 13.5 -38.5t27.5 -15.5v-8h-184v8q18 2 31 13.5t13 40.5v236l-237 405q-8 14 -22.5 23.5t-26.5 12.5v8h203v-8q-20 -3 -28 -18t6 -39l178 -327l169 327q9 16 8.5 27t-6 17t-12.5 9t-12 4v8h154v-8v0z" />
    <glyph glyph-name="Z" unicode="Z" horiz-adv-x="624" 
d="M541 0h-500l402 693h-307q-18 0 -29 -2.5t-17 -7.5t-8.5 -13t-3.5 -19h-9v96h511l-400 -691h232q23 0 47.5 2.5t47 9t41.5 17t31 27.5l9 -6z" />
    <glyph glyph-name="bracketleft" unicode="[" horiz-adv-x="318" 
d="M101 -199v983h139v-37h-81v-909h81v-37h-139z" />
    <glyph glyph-name="backslash" unicode="\" horiz-adv-x="448" 
d="M333 -59l-281 873h61l281 -873h-61z" />
    <glyph glyph-name="bracketright" unicode="]" horiz-adv-x="318" 
d="M78 -200v37h81v909h-81v37h139v-983h-139z" />
    <glyph glyph-name="asciicircum" unicode="^" horiz-adv-x="598" 
d="M429 284l-140 286l-140 -286h-62l181 363h61l181 -363h-81z" />
    <glyph glyph-name="underscore" unicode="_" horiz-adv-x="555" 
d="M0 -136v44h555v-44h-555z" />
    <glyph glyph-name="grave" unicode="`" horiz-adv-x="360" 
d="M93 748h113l69 -151h-63z" />
    <glyph glyph-name="a" unicode="a" horiz-adv-x="523" 
d="M367 0l-16 63q-9 -11 -20 -24.5t-29 -25.5t-44 -20t-65 -8q-24 0 -51.5 6.5t-51 23t-39 45t-15.5 71.5q0 37 15 63.5t40 43.5t57.5 26.5t67.5 14.5t69.5 6t64.5 1q0 31 -1 63t-10.5 58.5t-32.5 43.5t-68 17q-36 0 -62.5 -11t-45.5 -25.5t-29.5 -29t-13.5 -20.5h-8l8 93
q4 2 17.5 8.5t34.5 13.5t49.5 12.5t61.5 5.5q77 0 117 -22t57.5 -55t19 -72.5t1.5 -75.5v-138q0 -24 0.5 -48.5t5 -44.5t14.5 -34t29 -17v-8h-127zM350 250q-55 0 -96 -4t-68 -16.5t-40 -36.5t-13 -64q0 -18 5 -35.5t16 -31t28 -22t42 -8.5q51 0 77 26t37 61.5t11.5 72
t0.5 58.5z" />
    <glyph glyph-name="b" unicode="b" horiz-adv-x="650" 
d="M597 253q0 -51 -11.5 -100t-39 -88t-73 -62.5t-112.5 -23.5q-33 0 -59 6.5t-46.5 18t-35.5 26t-27 30.5q-3 -16 -7 -32.5t-7 -27.5h-88q2 4 3.5 14.5t2.5 22.5t1.5 23.5t0.5 17.5v611q0 41 -2 64t-7 33.5t-13 11.5t-19 0l-3 11l138 31v-389q6 10 19 23t32.5 25t45.5 20
t57 8q58 0 104.5 -19.5t78.5 -55.5t49.5 -86.5t17.5 -112.5zM493 248q0 70 -15 115.5t-37 72.5t-47.5 37.5t-47.5 10.5q-35 0 -65 -14t-51.5 -41.5t-33.5 -69.5t-12 -97q0 -44 8.5 -87t27.5 -77t50.5 -54.5t78.5 -20.5q27 0 52.5 10.5t46 36t33 69t12.5 109.5z" />
    <glyph glyph-name="c" unicode="c" horiz-adv-x="466" 
d="M437 16q-27 -16 -67.5 -24.5t-75.5 -8.5q-50 0 -87.5 13.5t-64.5 35t-44 49.5t-27 56.5t-14 55t-4 46.5q0 60 15.5 110t44.5 86t69.5 56.5t91.5 20.5q29 0 49 -3t33.5 -6.5t23 -6.5t18.5 -3q6 0 11 3l6 4h11l13 -137q0 -1 -2 -1t-4 -0.5t-4 -0.5q-14 45 -45 76.5
t-84 31.5q-27 0 -53 -9t-46.5 -33t-33 -67t-12.5 -110q0 -57 12 -99t32 -69.5t46.5 -41t55.5 -13.5q42 0 80 18t65 55l9 -4z" />
    <glyph glyph-name="d" unicode="d" horiz-adv-x="641" 
d="M463 0q-3 11 -7 27.5t-7 32.5q-22 -30 -62 -54.5t-107 -24.5q-48 0 -83.5 14t-60.5 36.5t-41.5 51.5t-25.5 58.5t-12.5 58t-3.5 50.5q0 9 1.5 32t8.5 52.5t22 61t41.5 57.5t67.5 43t100 17q32 0 56 -6t42 -16t31 -22.5t23 -24.5v279q0 40 -9.5 55t-30.5 13l-3 9l135 29
q0 -164 -0.5 -325t0.5 -325q0 -78 10 -124t40 -47v-8h-125zM457 251q0 48 -9 89t-28 70.5t-48 46t-68 16.5q-54 0 -84 -27t-44 -64.5t-17 -78t-3 -68.5q0 -99 39.5 -156t110.5 -57q9 0 23.5 2.5t31 10.5t34 23t31 40.5t22.5 62.5t9 90z" />
    <glyph glyph-name="e" unicode="e" horiz-adv-x="558" 
d="M513 271q0 -8 -0.5 -11t-0.5 -12h-354q0 -34 7.5 -73t25.5 -72.5t48.5 -55.5t77.5 -22q32 0 60 8.5t50 21t37.5 26t23.5 22.5l6 -3l-17 -80q-15 -8 -36.5 -14.5t-44.5 -11.5t-46 -8t-40 -3q-81 0 -131.5 28.5t-78.5 70t-37.5 88.5t-9.5 84q0 55 16 103t46.5 83.5t74 56
t97.5 20.5q65 0 108.5 -20.5t69.5 -55t37 -78.5t11 -92zM407 289q-4 103 -37 145.5t-85 42.5q-31 0 -54.5 -18.5t-39.5 -46.5t-24 -61t-8 -62h248z" />
    <glyph glyph-name="f" unicode="f" horiz-adv-x="341" 
d="M399 719q-13 23 -36 43.5t-65 20.5q-37 0 -61 -23t-24 -77v-183h134v-42h-134v-331v-34.5t3.5 -36t12.5 -30.5t28 -18v-8h-178v8q29 2 36.5 29.5t7.5 85.5v335h-94v42h94v160q0 24 6 54t23 56t47 43.5t78 17.5q22 0 40.5 -3.5t31.5 -7.5t20.5 -7.5t8.5 -3.5q4 0 7 3
q2 1 3 3l6 1l12 -94z" />
    <glyph glyph-name="g" unicode="g" horiz-adv-x="545" 
d="M523 -56q0 -45 -17 -81.5t-48.5 -63t-76 -40.5t-99.5 -14q-60 0 -104 15.5t-73 40t-43.5 54t-14.5 58.5q0 20 7.5 37.5t19 31.5t25 24.5t24.5 16.5q-6 2 -13 7t-13.5 12t-11 16t-4.5 20q0 19 8 37t20 33t25 27.5t22 20.5q-11 7 -23.5 19t-23.5 30t-18 42t-7 53
q0 45 17 78.5t44 55.5t60 32.5t65 10.5q23 0 43 -3.5t43 -13.5h152v-41h-92q16 -19 27 -48.5t11 -71.5q0 -45 -16.5 -78t-43 -54.5t-60.5 -31.5t-69 -10q-30 0 -49.5 6t-27.5 9q-8 -8 -18.5 -24.5t-10.5 -30.5q0 -23 25.5 -30.5t79.5 -8.5q18 -1 37 -1h71q75 0 113 -38.5
t38 -102.5zM370 347q0 19 -3.5 42t-14.5 43t-30.5 33t-50.5 13q-32 0 -52 -13t-31.5 -33t-15.5 -44.5t-4 -46.5q0 -23 6 -46.5t18.5 -43.5t31 -32.5t44.5 -12.5q51 0 76.5 40t25.5 101zM467 -76q0 32 -16 49t-41 24.5t-56 8.5t-61 1q-65 0 -93 1t-36 3q-18 -19 -30 -41
t-12 -49t13.5 -52t36 -43.5t51 -29.5t59.5 -11q48 0 82.5 14.5t57.5 36t34 45.5t11 43z" />
    <glyph glyph-name="h" unicode="h" horiz-adv-x="617" 
d="M388 0v8q10 3 17 6.5t11.5 12t7 24t2.5 41.5v246q0 60 -28 90.5t-69 30.5q-30 0 -55.5 -10.5t-44 -29.5t-29 -45.5t-10.5 -58.5v-225v-29.5t3 -24t11 -18t25 -10.5v-8h-169v8q20 5 28.5 21.5t8.5 58.5v591q0 29 -0.5 49.5t-4 33t-12 17t-23.5 2.5l-2 11l132 32v-36v-61.5
v-77v-81.5v-76v-61q8 9 20.5 23t32.5 27t48 22t66 9q41 0 73 -10t53.5 -32.5t32.5 -58.5t11 -89v-229q0 -33 6.5 -57.5t33.5 -27.5v-8h-176z" />
    <glyph glyph-name="i" unicode="i" horiz-adv-x="288" 
d="M58 0v8q10 3 18 5.5t12.5 10.5t7 24t2.5 45v295q0 28 -2 45t-6.5 26t-11.5 12t-17 3l-2 10l136 29v-423q0 -37 5 -56.5t34 -25.5v-8h-176zM209 674q0 -24 -17 -41.5t-42 -17.5t-42 17.5t-17 41.5q0 25 17 42t42 17t42 -17t17 -42z" />
    <glyph glyph-name="j" unicode="j" horiz-adv-x="259" 
d="M186 675q0 -23 -16.5 -39.5t-39.5 -16.5t-39.5 16.5t-16.5 39.5t16.5 39.5t39.5 16.5t39.5 -16.5t16.5 -39.5zM178 -90q0 -53 -15 -86t-36.5 -51.5t-46.5 -25t-45 -6.5q-37 0 -60 12t-32 23l13 13q5 -4 17.5 -11t32.5 -7q47 0 64 36.5t17 93.5v487q0 27 -4 44t-10 26.5
t-13.5 12.5t-15.5 2l-2 11l136 28v-602z" />
    <glyph glyph-name="k" unicode="k" horiz-adv-x="544" 
d="M357 0v8q9 0 16 4q6 2 11.5 7.5t5.5 13.5q0 4 -6 15t-15.5 27t-21.5 34.5t-25 37.5q-30 44 -68 98l-64 -72v-89q0 -70 39 -76v-8h-83h-89v8q3 1 10 3t14 8.5t12.5 19t5.5 34.5v626q0 27 -0.5 46t-4.5 32t-12.5 19t-24.5 6l-2 9l134 27v-604q29 33 59 68t55 64
q29 34 56 67q5 7 8.5 13t3.5 17q0 23 -31 29v8h165v-8q-20 -1 -45 -21t-51 -47.5t-50 -57t-42 -49.5q64 -93 103 -152t64.5 -93t42 -48t35.5 -16v-8h-205z" />
    <glyph glyph-name="l" unicode="l" horiz-adv-x="282" 
d="M143 0h-82v8q20 5 27.5 22t7.5 63v586q0 63 -7.5 93t-31.5 26l-2 10l134 29v-747q0 -45 9 -62t31 -20v-8h-86z" />
    <glyph glyph-name="m" unicode="m" horiz-adv-x="918" 
d="M687 0v8q10 3 18 5.5t12.5 10.5t7 24t2.5 45v244q0 54 -21.5 87.5t-70.5 33.5q-10 0 -30.5 -4t-41 -16.5t-36 -36.5t-15.5 -64v-247q0 -37 5 -56.5t34 -25.5v-8h-176v8q10 3 18 4.5t12.5 8.5t7 22t2.5 44v250q0 54 -24 87.5t-73 33.5q-11 0 -32 -5t-41 -20.5t-35 -43.5
t-15 -74v-225q0 -37 5 -56.5t34 -25.5v-8h-176v8q10 3 18 5.5t12.5 10.5t7 24t2.5 45v295q0 28 -2 45t-6.5 26t-11.5 12t-17 3l-2 10l129 29v-84q12 15 27 30t35 27.5t45.5 20t58.5 7.5q30 0 53 -8.5t40 -22t29 -31t19 -35.5q16 40 58.5 68.5t117.5 28.5q44 0 73.5 -15.5
t47 -40t25 -56.5t7.5 -65v-247q0 -37 5 -56.5t34 -25.5v-8h-176z" />
    <glyph glyph-name="n" unicode="n" horiz-adv-x="622" 
d="M391 0v8q10 3 18 5.5t12.5 10.5t7 24t2.5 45v244q0 54 -24 88t-73 34q-53 0 -81.5 -21.5t-41 -47.5t-14.5 -49t-2 -26v-225q0 -37 5 -56.5t34 -25.5v-8h-176v8q10 3 18 5.5t12.5 10.5t7 24t2.5 45v295q0 28 -2 45t-6.5 26t-11.5 12t-17 3l-2 10l131 29v-79q14 15 30 29.5
t36 26t45.5 18t58.5 6.5q168 0 168 -177v-247q0 -37 5 -56.5t34 -25.5v-8h-176z" />
    <glyph glyph-name="o" unicode="o" horiz-adv-x="610" 
d="M557 251q0 -49 -14.5 -96.5t-45 -85t-79.5 -60.5t-118 -23q-71 0 -118 25.5t-76 65t-41 86t-12 88.5q0 39 10.5 85.5t39.5 87t80 67.5t133 27q60 0 105 -21.5t75.5 -58t45.5 -85t15 -102.5zM453 250q0 61 -11 104.5t-30.5 70.5t-47.5 39.5t-62 12.5q-31 0 -58 -14
t-46.5 -42.5t-30.5 -73.5t-11 -106q0 -38 6.5 -76t23.5 -69t45 -50.5t72 -19.5q32 0 59.5 12t47.5 39t31.5 69.5t11.5 103.5z" />
    <glyph glyph-name="p" unicode="p" horiz-adv-x="637" 
d="M584 244q0 -55 -16 -102.5t-46.5 -82.5t-74.5 -55t-100 -20q-60 0 -97.5 21t-57.5 47v-131q0 -33 1 -63q0 -27 2.5 -44t8.5 -26.5t16 -14t25 -5.5v-11h-198v11q34 4 42.5 27.5t8.5 61.5v521q0 20 -1 37.5t-4.5 30.5t-11.5 19.5t-23 3.5l-3 11l134 29v-68q26 34 65 55.5
t100 21.5q112 0 171 -71.5t59 -202.5zM480 252q0 115 -37 169.5t-109 54.5q-29 0 -56.5 -12t-48.5 -38t-33.5 -68.5t-12.5 -102.5q0 -26 3.5 -65t18 -75t44.5 -62t83 -26q33 0 60 12.5t46.5 39.5t30.5 69.5t11 103.5z" />
    <glyph glyph-name="q" unicode="q" horiz-adv-x="647" 
d="M417 -243v8q13 2 21 7.5t12.5 16.5t5.5 27.5t1 41.5v201q-9 -11 -22.5 -24t-31.5 -24t-41.5 -18.5t-53.5 -7.5q-70 0 -118.5 23t-79 62t-44 90t-13.5 107q0 46 13 93t40.5 85t70.5 62t103 24q68 0 111.5 -26t69.5 -64l14 59h85q-3 -4 -5 -16.5t-2.5 -29t-1 -35
t-0.5 -34.5v-526q0 -47 6.5 -68.5t36.5 -25.5v-8h-177zM465 252q0 64 -13.5 109t-36 73t-52 41t-60.5 13q-74 0 -110 -60t-36 -176q0 -50 10.5 -91.5t30 -71t46.5 -46t61 -16.5q44 0 74.5 17t49.5 47t27.5 71.5t8.5 89.5z" />
    <glyph glyph-name="r" unicode="r" horiz-adv-x="370" 
d="M370 416q-8 14 -25.5 25t-43.5 11q-6 0 -24.5 -4t-38.5 -21.5t-36 -53t-16 -98.5v-185q0 -37 5 -56.5t34 -25.5v-8h-176v8q10 3 18 5.5t12.5 10.5t7 24t2.5 45v295q0 28 -2 45t-6.5 26.5t-11.5 13t-17 3.5l-2 10l131 26v-91q11 25 27.5 43.5t34.5 30.5t36.5 17.5
t33.5 5.5q10 0 18.5 -0.5t16 -2t16 -5t19.5 -9.5v-85h-13z" />
    <glyph glyph-name="s" unicode="s" horiz-adv-x="464" 
d="M441 148q0 -39 -15 -69t-41.5 -51t-63 -32t-79.5 -11q-45 0 -80 10.5t-63 10.5q-16 0 -20 -6h-11v140h9q6 -24 22 -45t38.5 -36.5t50 -24t57.5 -8.5t53 7.5t38.5 20t24 28t8.5 30.5q0 28 -16.5 46t-40.5 30t-51.5 19.5t-49.5 15.5q-17 6 -42 15t-48 26t-39.5 42.5
t-16.5 64.5q0 35 14.5 62.5t39.5 46t56.5 28t66.5 9.5q26 0 45 -3.5t34.5 -7t28 -7t24.5 -3.5q5 0 13 2q4 1 7 2h7l12 -129l-9 -2q-6 19 -19 38t-32.5 34t-45.5 24t-58 9q-29 0 -49 -7t-32 -18t-17.5 -24.5t-5.5 -26.5q0 -21 9.5 -35t27 -25t42.5 -19.5t57 -18.5
q16 -5 43.5 -13t53 -24t44.5 -43.5t19 -71.5z" />
    <glyph glyph-name="t" unicode="t" horiz-adv-x="330" 
d="M342 2q-9 -4 -22.5 -8t-30 -7t-33.5 -4.5t-32 -1.5q-39 0 -64.5 9.5t-40.5 28t-21 47t-6 66.5v326h-77v40h81v126l94 64v-190h133v-40h-133v-297q0 -23 0.5 -46.5t6 -43t18 -32t36.5 -12.5q26 0 50 9.5t44 25.5l9 -1z" />
    <glyph glyph-name="u" unicode="u" horiz-adv-x="627" 
d="M442 0q-1 3 -2 12.5t-2.5 20t-3 20.5t-1.5 16q-30 -40 -68.5 -62.5t-100.5 -22.5q-165 0 -165 184v237q0 31 -8 52.5t-36 18.5v8l141 31v-343q0 -23 4 -47.5t15.5 -44t31 -32t51.5 -12.5t56 13t40 34t24 47.5t8 54.5v223q0 9 -1.5 22t-6 24t-13 17.5t-21.5 4.5v8l138 31
v-404q0 -14 1.5 -32t6.5 -34t14.5 -26.5t24.5 -10.5v-8h-127z" />
    <glyph glyph-name="v" unicode="v" horiz-adv-x="458" 
d="M488 492q-21 -5 -36 -17.5t-22 -28.5l-194 -475l-200 475q-9 22 -23 33.5t-30 12.5v8h190v-8q-23 -4 -28 -24.5t4 -44.5l4.5 -12.5t12.5 -32t17.5 -45t20.5 -51.5q24 -62 55 -140l113 283q11 26 3 45t-25 22v8h138v-8v0z" />
    <glyph glyph-name="w" unicode="w" horiz-adv-x="757" 
d="M784 492q-21 -5 -39.5 -22t-27.5 -39l-185 -461l-148 349q-23 -56 -47.5 -116.5t-44.5 -111.5q-24 -60 -46 -118l-203 473q-9 22 -24.5 33.5t-31.5 12.5v8h182v-8q-14 -2 -20.5 -10.5t-7.5 -20t1.5 -23t5.5 -19.5l115 -295l36 92q15 39 31.5 82t29.5 76l-30 72
q-8 19 -21 32t-29 14v8h180v-8q-22 -2 -30 -24t5 -55l115 -289l116 302q6 17 5 29t-6 20.5t-13.5 12.5t-16.5 4v8h149v-8v0z" />
    <glyph glyph-name="x" unicode="x" horiz-adv-x="450" 
d="M267 0v8q5 0 12 2t11.5 7.5t5 15.5t-8.5 25q-19 34 -36 65q-14 26 -29.5 53.5t-24.5 44.5q-32 -50 -52 -82t-31 -50q-13 -22 -20 -32q-14 -23 -5 -36t23 -13v-8h-142v8q9 0 18 5t18 13t16.5 17t12.5 17l131 198l-113 191q-12 20 -31 31t-29 12v8h199v-8q-6 -1 -13 -3.5
t-12 -8t-6 -14.5t6 -22l73 -132l84 133q14 23 4 33.5t-25 13.5v8h137v-8q-13 -2 -29.5 -12t-27.5 -27l-114 -182l132 -218q13 -21 30.5 -32t31.5 -13v-8h-196z" />
    <glyph glyph-name="y" unicode="y" horiz-adv-x="478" 
d="M498 492q-12 -2 -22 -8.5t-18 -15.5t-13.5 -18t-8.5 -16l-246 -566q-11 -24 -25 -46t-31.5 -39t-38 -27t-43.5 -10q-37 0 -58 12v78h9q6 -14 19.5 -23t36.5 -9q26 0 47.5 22t40 55.5t34.5 73t31 74.5l-176 405q-14 33 -29.5 45t-32.5 13v8h197v-8q-10 -2 -18.5 -6
t-12.5 -14t-2.5 -26.5t12.5 -41.5l111 -268l127 304q11 27 0.5 39.5t-30.5 12.5v8h140v-8v0z" />
    <glyph glyph-name="z" unicode="z" horiz-adv-x="481" 
d="M441 0h-422v14l307 441h-171q-14 0 -31.5 -1.5t-33 -8.5t-27 -20t-12.5 -35h-12v107h411v-11l-311 -443h127q29 0 58.5 1t55.5 9.5t46.5 26t31.5 50.5l9 -3z" />
    <glyph glyph-name="braceleft" unicode="{" horiz-adv-x="388" 
d="M287 -200q-38 0 -66.5 7t-47.5 23.5t-28.5 44t-9.5 70.5v228q0 46 -11 73t-43 42q32 14 43 41.5t11 72.5v238q0 43 9.5 70t28.5 42t47.5 21t66.5 6v-9q-37 -5 -51 -38t-14 -86v-229q0 -26 -3 -46.5t-12.5 -36.5t-27.5 -27t-48 -18v-3q30 -6 48 -17.5t27.5 -27t12.5 -36.5
t3 -47v-219q0 -53 13.5 -88t51.5 -42v-9v0z" />
    <glyph glyph-name="bar" unicode="|" horiz-adv-x="285" 
d="M110 -200v1000h65v-1000h-65z" />
    <glyph glyph-name="braceright" unicode="}" horiz-adv-x="348" 
d="M307 288q-32 -15 -43 -42t-11 -73v-228q0 -43 -9.5 -70.5t-28.5 -44t-47.5 -23.5t-66.5 -7v9q38 7 51.5 42t13.5 88v219q0 26 3 47t12.5 36.5t27.5 27t48 17.5v3q-30 7 -48 18t-27.5 27t-12.5 36.5t-3 46.5v229q0 53 -14 86t-51 38v9q38 0 66.5 -6t47.5 -21t28.5 -42
t9.5 -70v-238q0 -45 11 -72.5t43 -41.5z" />
    <glyph glyph-name="asciitilde" unicode="~" horiz-adv-x="617" 
d="M536 330q-12 -16 -24.5 -32t-27.5 -28.5t-33.5 -20t-42.5 -7.5q-29 0 -54.5 10.5t-51.5 24.5q-27 15 -58.5 26.5t-69.5 11.5q-35 0 -56 -21.5t-35 -48.5l-30 48q8 16 19.5 32t27.5 28t35.5 19.5t44.5 7.5q27 0 56.5 -10.5t59.5 -23.5t60.5 -26t52.5 -13q32 0 54.5 22
t40.5 50l32 -49v0z" />
    <glyph glyph-name="uni00A0" unicode="&#xa0;" horiz-adv-x="602" 
 />
    <glyph glyph-name="exclamdown" unicode="&#xa1;" horiz-adv-x="350" 
d="M234 474q0 -25 -17.5 -42t-41.5 -17q-25 0 -42 17t-17 42q0 24 17 41.5t42 17.5q24 0 41.5 -17.5t17.5 -41.5zM124 -230l22 601h56l23 -601h-101z" />
    <glyph glyph-name="cent" unicode="&#xa2;" 
d="M467 144q-23 -11 -55 -19.5t-63 -12.5v-112h-46v112q-69 4 -113 33.5t-69 69t-34 81.5t-9 71q0 57 16.5 106.5t46 86t71 57.5t91.5 21v109h46v-111q32 -4 47.5 -10t29.5 -6q9 0 17 2q4 1 6 3h11l11 -133q0 -1 -2 -1t-4 -0.5t-4 -0.5q-24 59 -51 80t-61 24v-438
q37 5 70 23t56 47l9 -4zM303 594q-24 -4 -46 -16.5t-39.5 -37.5t-27.5 -64.5t-10 -97.5q0 -50 10 -88.5t27 -66t39 -43.5t47 -22v436z" />
    <glyph glyph-name="sterling" unicode="&#xa3;" 
d="M541 0h-473v8q25 6 53 14.5t51.5 25t39 42.5t15.5 67q0 48 -16.5 103.5t-36.5 113.5h-100l8 48h76q-14 42 -23 82t-9 75q0 52 19.5 87t48 56.5t61.5 31t60 9.5q14 0 34 -4t40 -9.5t37 -9.5t25 -4l10 9h14l20 -151l-14 -2q-12 35 -32 62q-17 23 -45 43t-70 20
q-30 0 -51 -11t-34 -29.5t-18.5 -44t-5.5 -54.5q0 -26 7.5 -67t17.5 -89h233l-8 -48h-215q9 -48 16 -96t7 -91q0 -23 -5 -43t-10 -35q-7 -18 -15 -33h172q38 0 60.5 1.5t35 4.5t17.5 8.5t8 13.5l10 -3z" />
    <glyph glyph-name="currency" unicode="&#xa4;" horiz-adv-x="769" 
d="M163 474q11 61 37 113.5t64.5 91t89 60.5t111.5 22q26 0 49 -3t40.5 -6.5t28.5 -6.5t14 -3q6 0 10 2.5t6 4.5h7l23 -134l-13 -2q-9 19 -25 36t-36.5 30t-46 21t-54.5 8q-43 0 -77.5 -17t-60 -48t-43 -74t-26.5 -95h348l-9 -49h-345q-1 -8 -1 -16.5v-16.5v-18.5t1 -18.5
h354l-9 -49h-340q11 -126 64.5 -194.5t158.5 -68.5q48 0 94.5 29t70.5 88l12 -2l-22 -144h-8q-2 2 -2 4t-10 2q-3 0 -16.5 -4.5t-34 -10.5t-46.5 -10.5t-54 -4.5q-74 0 -127 21t-89 61t-57 99t-32 135h-72l9 49h58q0 8 -0.5 17t-0.5 17q0 9 0.5 18t0.5 18h-67l9 49h64z" />
    <glyph glyph-name="yen" unicode="&#xa5;" horiz-adv-x="664" 
d="M668 739q-24 -3 -38.5 -16.5t-30.5 -43.5l-179 -334h157v-48h-183q0 -1 -0.5 -2.5t-0.5 -7.5v-18v-33h184v-48h-184v-126q0 -25 13.5 -38.5t27.5 -15.5v-8h-184v8q18 2 31 13.5t13 40.5v126h-190v48h190v61h-190v48h162l-209 358q-8 14 -22.5 23.5t-26.5 12.5v8h203v-8
q-20 -3 -28 -18t6 -39l178 -327l169 327q9 16 8.5 27t-6 17t-12.5 9t-12 4v8h154v-8v0z" />
    <glyph glyph-name="brokenbar" unicode="&#xa6;" horiz-adv-x="218" 
d="M76 325v350h65v-350h-65zM76 -175v350h65v-350h-65z" />
    <glyph glyph-name="section" unicode="&#xa7;" horiz-adv-x="634" 
d="M577 250q0 -32 -12.5 -60.5t-34 -52t-50 -41.5t-59.5 -29q36 -25 60.5 -59t24.5 -89q0 -35 -12.5 -66t-36 -54t-57 -36.5t-75.5 -13.5q-25 0 -43 3.5t-32 8t-24.5 8t-19.5 3.5q-5 0 -12.5 -2.5t-11.5 -7.5h-9l-20 155l14 3q5 -25 20 -48.5t36 -41.5t45.5 -29t50.5 -11
q32 0 53.5 9.5t34 24t18 31.5t5.5 32q0 28 -12.5 50t-32.5 39.5t-45.5 32.5t-50.5 30q-21 12 -57 31t-71.5 46t-61.5 63t-26 82q0 32 12.5 60.5t34 52t50 41.5t59.5 29q-36 25 -60.5 59t-24.5 89q0 35 12.5 66t36 54t57 36.5t75.5 13.5q25 0 43 -3.5t32 -8t24.5 -8
t19.5 -3.5q5 0 12 2.5t12 7.5h9l20 -155l-14 -3q-6 25 -20.5 48.5t-35.5 41.5t-46 29t-50 11q-32 0 -53.5 -9.5t-34 -24t-18 -31.5t-5.5 -32q0 -29 12.5 -50.5t32.5 -39t45 -32.5t51 -30q21 -12 57 -31t71.5 -46t61.5 -63t26 -82zM496 220q0 30 -13.5 52t-36.5 40.5t-53 35
t-63 36.5q-17 10 -34 19.5t-34 19.5q-24 -8 -43.5 -23t-34 -33t-22.5 -38t-8 -38q0 -30 13.5 -52t36.5 -40.5t53 -35.5t63 -36q17 -10 34 -19.5t34 -19.5q24 8 43.5 23t34 33t22.5 38t8 38z" />
    <glyph glyph-name="dieresis" unicode="&#xa8;" horiz-adv-x="416" 
d="M345 677q0 -23 -16 -39t-39 -16t-39.5 16t-16.5 39t16.5 39t39.5 16t39 -16t16 -39zM182 677q0 -23 -16.5 -39t-39.5 -16t-39 16t-16 39t16 39t39 16t39.5 -16t16.5 -39z" />
    <glyph glyph-name="copyright" unicode="&#xa9;" horiz-adv-x="875" 
d="M821 371q0 -79 -30 -149t-82.5 -122t-122.5 -82t-149 -30t-149 30t-122 82t-82 122t-30 149t30 149t82 122.5t122 82.5t149 30t149 -30t122.5 -82.5t82.5 -122.5t30 -149zM772 371q0 69 -26.5 130t-72 106.5t-106.5 72t-130 26.5t-130 -26.5t-106 -72t-71.5 -106.5
t-26.5 -130t26.5 -130t71.5 -106t106 -71.5t130 -26.5t130 26.5t106.5 71.5t72 106t26.5 130zM587 162h-5q-1 1 -2 1q-3 3 -9 3q-2 0 -12 -3q-23 -6 -47 -10t-48 -4q-44 0 -84 15t-71 44.5t-49 72t-18 97.5q0 43 16 82t45.5 67.5t70 45.5t88.5 17q37 0 63 -5.5t31 -5.5t10 5
h6l19 -81l-10 -2q-14 22 -45 38t-71 16q-36 0 -65.5 -13.5t-51.5 -36.5t-34 -55.5t-12 -69.5q0 -46 13 -82t36 -61.5t55 -39t70 -13.5q33 0 66.5 16t50.5 50l10 -2z" />
    <glyph glyph-name="ordfeminine" unicode="&#xaa;" horiz-adv-x="328" 
d="M218 469l-8 30q-5 -7 -11 -12.5t-13 -10.5q-11 -7 -25.5 -11.5t-36.5 -4.5q-14 0 -29.5 4t-28.5 13t-22 25t-9 40q0 31 17.5 48.5t44 26t56.5 10.5t55 2q0 16 -0.5 32t-6 29.5t-17.5 22t-35 8.5q-19 0 -33.5 -6t-24.5 -13.5t-15.5 -15.5t-7.5 -12h-10l5 55q6 4 30.5 13.5
t62.5 9.5q43 0 65.5 -12t32.5 -31q10 -18 11 -39.5t1 -41.5v-75v-24.5t3 -24.5q2 -11 7.5 -17.5t16.5 -8.5v-9h-75zM208 603q-59 0 -86.5 -11t-27.5 -51q0 -19 11 -34t36 -15q19 0 31.5 7.5t20 19t10.5 26.5t4 30q1 8 1 15.5v12.5z" />
    <glyph glyph-name="guillemotleft" unicode="&#xab;" horiz-adv-x="422" 
d="M336 124l-152 150l152 154h46l-95 -154l95 -150h-46zM184 124l-152 150l152 154h46l-95 -154l95 -150h-46z" />
    <glyph glyph-name="logicalnot" unicode="&#xac;" horiz-adv-x="588" 
d="M477 85v187h-418v53h470v-240h-52z" />
    <glyph glyph-name="uni00AD" unicode="&#xad;" 
d="M81 224v52h403v-52h-403z" />
    <glyph glyph-name="registered" unicode="&#xae;" horiz-adv-x="423" 
d="M403 564q0 -40 -15 -75t-41 -61t-60.5 -41t-74.5 -15t-75 15t-61 41t-41 61t-15 75t15 74.5t41 60.5t61 41t75 15t74.5 -15t60.5 -41t41 -60.5t15 -74.5zM379 564q0 34 -13 64.5t-36 53.5t-53.5 36t-64.5 13q-35 0 -65.5 -13t-53.5 -36t-36 -53.5t-13 -64.5q0 -35 13 -65
t36 -53t53.5 -36t65.5 -13q34 0 64.5 13t53.5 36t36 53t13 65zM338 445v7q-5 0 -11.5 4t-14.5 15l-66 92q15 7 29.5 21t14.5 38q0 22 -10 35.5t-23.5 21t-27 9.5t-21.5 2h-69v-5q14 -1 14 -24v-186q0 -23 -13 -24v-6h64v6q-8 2 -12 6t-4 19v77h10q3 0 6 0.5t7 0.5l75 -109
h52zM253 620q0 27 -14.5 39.5t-36.5 12.5h-14v-101h5q35 0 47.5 16t12.5 33z" />
    <glyph glyph-name="macron" unicode="&#xaf;" horiz-adv-x="431" 
d="M55 645v55h310v-55h-310z" />
    <glyph glyph-name="degree" unicode="&#xb0;" horiz-adv-x="400" 
d="M316 649q0 -24 -9 -45t-25 -37t-37 -25t-45 -9t-45 9t-37 25t-25 37t-9 45t9 45.5t25 37.5t37 25t45 9t45 -9t37 -25t25 -37.5t9 -45.5zM274 649q0 32 -21.5 53.5t-52.5 21.5t-52.5 -21.5t-21.5 -53.5q0 -31 21.5 -52.5t52.5 -21.5t52.5 21.5t21.5 52.5z" />
    <glyph glyph-name="plusminus" unicode="&#xb1;" 
d="M306 272v-174h-52v174h-209v52h209v174h52v-174h209v-52h-209zM516 52v-52h-473v52h473z" />
    <glyph glyph-name="uni00B2" unicode="&#xb2;" horiz-adv-x="411" 
d="M324 293h-275v9q4 5 25.5 31.5t47.5 57.5q29 36 66 80q32 38 50.5 77.5t18.5 67.5q0 43 -25 67.5t-64 24.5q-33 0 -52 -15.5t-31 -32.5l-22 12q4 13 14.5 28t27 27.5t39 21t51.5 8.5t52.5 -10.5t40 -28t25 -40.5t8.5 -48q0 -26 -10.5 -51.5t-26 -49.5t-34.5 -46t-36 -41
l-81 -91h164q10 0 16 2.5t9 12.5l11 -3z" />
    <glyph glyph-name="uni00B3" unicode="&#xb3;" horiz-adv-x="376" 
d="M305 428q0 -25 -8 -51t-26 -47.5t-45.5 -35t-66.5 -13.5q-23 0 -41 5t-31 11.5t-21 13t-11 9.5l13 18q9 -7 20 -12q9 -5 22 -8t29 -3q25 0 44 8.5t32 22.5t19.5 31.5t6.5 35.5q0 46 -21.5 77.5t-70.5 31.5q-11 0 -24 -3t-16 -3v25q50 8 80 38.5t30 68.5q0 27 -18.5 49
t-50.5 22q-20 0 -38 -9.5t-25 -17.5l-16 17q4 6 13 13.5t22.5 14.5t30.5 12t35 5q48 0 79.5 -26t31.5 -68q0 -39 -23 -63.5t-54 -41.5q11 -3 28 -10.5t32.5 -22t27 -37.5t11.5 -57z" />
    <glyph glyph-name="acute" unicode="&#xb4;" horiz-adv-x="360" 
d="M150 597h-63l69 151h113z" />
    <glyph glyph-name="mu" unicode="&#xb5;" horiz-adv-x="576" 
d="M173 -5v-238h-92v650q0 31 -8 54t-36 20v8l135 28v-345q0 -23 4.5 -47.5t16 -44t31.5 -32t52 -12.5t56 13t39.5 34t23.5 47.5t8 54.5v225q0 9 -1.5 22t-6 24.5t-13 18.5t-21.5 5v8l140 27v-404q0 -14 1.5 -32t6.5 -34t14.5 -26.5t24.5 -10.5v-8h-129q0 3 -1.5 12.5t-3 20
t-2.5 20.5t-2 16q-30 -40 -68 -62.5t-100 -22.5q-39 0 -69 11z" />
    <glyph glyph-name="mu" unicode="&#x3bc;" horiz-adv-x="576" 
d="M173 -5v-238h-92v650q0 31 -8 54t-36 20v8l135 28v-345q0 -23 4.5 -47.5t16 -44t31.5 -32t52 -12.5t56 13t39.5 34t23.5 47.5t8 54.5v225q0 9 -1.5 22t-6 24.5t-13 18.5t-21.5 5v8l140 27v-404q0 -14 1.5 -32t6.5 -34t14.5 -26.5t24.5 -10.5v-8h-129q0 3 -1.5 12.5t-3 20
t-2.5 20.5t-2 16q-30 -40 -68 -62.5t-100 -22.5q-39 0 -69 11z" />
    <glyph glyph-name="paragraph" unicode="&#xb6;" horiz-adv-x="595" 
d="M523 739q-25 -3 -35 -22.5t-10 -56.5v-815q0 -40 8 -58t31 -21v-8h-114v958h-81v-958h-123v8q22 3 35 18.5t13 63.5v497h-9q-38 0 -75 11t-66.5 34.5t-47.5 60.5t-18 89q0 55 19.5 94.5t54.5 64.5t83.5 36.5t106.5 11.5h228v-8v0z" />
    <glyph glyph-name="periodcentered" unicode="&#xb7;" horiz-adv-x="379" 
d="M269 299q0 -33 -23 -56.5t-57 -23.5q-33 0 -56 23.5t-23 56.5t23 56.5t56 23.5q34 0 57 -23.5t23 -56.5z" />
    <glyph glyph-name="cedilla" unicode="&#xb8;" horiz-adv-x="288" 
d="M215 -139q0 -23 -13 -42.5t-33 -34.5t-43.5 -24t-45.5 -10l-11 21q36 6 63.5 28t27.5 52q0 14 -7 22.5t-18 13t-24.5 6t-27.5 1.5l13 130h42l-10 -91q9 0 23.5 -1t28.5 -7.5t24.5 -21t10.5 -42.5z" />
    <glyph glyph-name="uni00B9" unicode="&#xb9;" horiz-adv-x="315" 
d="M92 298v10q9 2 14.5 4.5t8.5 9t4 20.5t1 38v266v19.5t-1 14.5q0 12 -5 15q-4 5 -15 6t-37 1v16l122 45v-385q0 -22 0.5 -34.5t3.5 -19.5t8.5 -10t15.5 -6v-10h-120z" />
    <glyph glyph-name="ordmasculine" unicode="&#xba;" horiz-adv-x="353" 
d="M318 606q0 -27 -8 -53t-25 -46.5t-44.5 -33.5t-66.5 -13q-40 0 -66.5 14t-42.5 36t-23 47.5t-7 48.5q0 21 6 47t22.5 48t45 37t74.5 15q34 0 59 -12t42 -32t25.5 -46.5t8.5 -56.5zM255 606q0 66 -22 92.5t-58 26.5q-32 0 -54.5 -29t-22.5 -95q0 -20 3.5 -40.5t12 -36.5
t23.5 -26t38 -10q34 0 57 26.5t23 91.5z" />
    <glyph glyph-name="guillemotright" unicode="&#xbb;" horiz-adv-x="422" 
d="M40 124l95 150l-95 154h46l152 -154l-152 -150h-46zM192 124l95 150l-95 154h46l152 -154l-152 -150h-46z" />
    <glyph glyph-name="onequarter" unicode="&#xbc;" horiz-adv-x="767" 
d="M621 149v-69q0 -22 0.5 -34.5t3.5 -19.5t8.5 -10t14.5 -6v-10h-120v10q9 2 15 4.5t9 9t4 20.5t1 38v67h-203v32l241 273h26v-171v-90h62v-44h-62zM119 -13h-62l519 772h62zM91 298v10q9 2 15 4.5t9 9t4 20.5t1 38v266v19.5t-1 14.5q-2 13 -5 15q-5 5 -15.5 6t-36.5 1v16
l122 45v-385q0 -22 0.5 -34.5t3.5 -19.5t8.5 -10t14.5 -6v-10h-120zM557 360l-149 -167h149v167z" />
    <glyph glyph-name="onehalf" unicode="&#xbd;" horiz-adv-x="788" 
d="M706 0h-275v9q4 5 25.5 31.5t47.5 57.5q29 36 66 80q32 38 50.5 77.5t18.5 67.5q0 43 -25.5 67.5t-63.5 24.5q-34 0 -52.5 -15.5t-30.5 -32.5l-22 12q4 13 14.5 28t27 27.5t39 21t51.5 8.5t52.5 -10.5t40 -28t25 -40.5t8.5 -48q0 -26 -10.5 -51.5t-26 -50t-34.5 -46.5
t-36 -40l-82 -91h165q10 0 16 2.5t9 12.5l11 -4zM119 -13h-62l519 772h62zM91 298v10q9 2 15 4.5t9 9t4 20.5t1 38v266v19.5t-1 14.5q-2 13 -5 15q-5 5 -15.5 6t-36.5 1v16l122 45v-385q0 -22 0.5 -34.5t3.5 -19.5t8.5 -10t14.5 -6v-10h-120z" />
    <glyph glyph-name="threequarters" unicode="&#xbe;" horiz-adv-x="843" 
d="M697 149v-69q0 -22 0.5 -34.5t3.5 -19.5t8.5 -10t15.5 -6v-10h-120v10q9 2 14.5 4.5t8.5 9t4 20.5t1 38v67h-202v32l240 273h26v-171v-90h63v-44h-63zM196 -13h-62l519 772h62zM306 428q0 -25 -8.5 -51t-26 -47.5t-45.5 -35t-67 -13.5q-23 0 -41 5t-31 11.5t-21 13
t-11 9.5l14 18q8 -7 19 -12q9 -5 22 -8t29 -3q25 0 44 8.5t32 22.5t19.5 31.5t6.5 35.5q0 46 -21.5 77.5t-69.5 31.5q-11 0 -24.5 -3t-16.5 -3v25q51 8 80.5 38.5t29.5 68.5q0 27 -18.5 49t-50.5 22q-20 0 -38 -9.5t-25 -17.5l-16 17q4 6 13.5 13.5t23 14.5t30 12t34.5 5
q48 0 79.5 -26t31.5 -68q0 -39 -23 -63.5t-54 -41.5q11 -3 28 -10.5t33 -22t27.5 -37.5t11.5 -57zM633 360l-148 -167h148v167z" />
    <glyph glyph-name="questiondown" unicode="&#xbf;" horiz-adv-x="494" 
d="M332 490q0 -25 -17 -42t-42 -17t-42 17t-17 42q0 24 17 41.5t42 17.5t42 -17.5t17 -41.5zM460 -97q-15 -27 -34 -51.5t-44.5 -42.5t-57 -28.5t-71.5 -10.5q-47 0 -85 15.5t-65 43t-42 64.5t-15 80q0 47 23 89.5t53 79t60 67t45 53.5t20 54t5 68h46q0 -8 1 -17
q0 -8 0.5 -16t0.5 -13q0 -40 -10 -66.5t-30 -54.5q-13 -18 -33 -42t-39 -53t-32.5 -62t-13.5 -69q0 -20 6.5 -46.5t23 -50t46 -40t76.5 -16.5q25 0 46.5 7t38.5 18.5t30.5 25.5t24.5 28z" />
    <glyph glyph-name="Agrave" unicode="&#xc0;" horiz-adv-x="708" 
d="M510 0v8q11 1 17 7t8.5 14t1.5 18t-4 19l-70 193h-268l-70 -199q-2 -6 -3 -14.5t1 -16.5t9 -14t21 -7v-8h-143v8q7 1 15.5 6.5t15.5 13.5t12.5 16.5t8.5 16.5l233 638q7 18 -3 27.5t-18 12.5v8h108l261 -683q9 -23 23 -38t34 -18v-8h-190zM327 629l-115 -321h233z
M203 981h113l69 -151h-63z" />
    <glyph glyph-name="Aacute" unicode="&#xc1;" horiz-adv-x="704" 
d="M344 830h-63l69 150h113zM507 0v8q11 1 17 7t8.5 14t1.5 18t-4 19l-70 193h-268l-70 -199q-2 -6 -3 -14.5t1 -16.5t9 -14t21 -7v-8h-143v8q7 1 15.5 6.5t15.5 13.5t12.5 16.5t8.5 16.5l233 638q7 18 -3 27.5t-18 12.5v8h108l261 -683q9 -23 23 -38t34 -18v-8h-190z
M324 629l-115 -321h233z" />
    <glyph glyph-name="Acircumflex" unicode="&#xc2;" horiz-adv-x="703" 
d="M506 0v8q11 1 17 7t8.5 14t1.5 18t-4 19l-70 193h-268l-70 -199q-2 -6 -3 -14.5t1 -16.5t9 -14t21 -7v-8h-143v8q7 1 15.5 6.5t15.5 13.5t12.5 16.5t8.5 16.5l233 638q7 18 -3 27.5t-18 12.5v8h108l261 -683q9 -23 23 -38t34 -18v-8h-190zM323 629l-115 -321h233z
M394 828l-72 104l-71 -104h-47l59 151h118l62 -151h-49z" />
    <glyph glyph-name="Atilde" unicode="&#xc3;" horiz-adv-x="702" 
d="M506 0v8q11 1 17 7t8.5 14t1.5 18t-4 19l-70 193h-268l-70 -199q-2 -6 -3 -14.5t1 -16.5t9 -14t21 -7v-8h-143v8q7 1 15.5 6.5t15.5 13.5t12.5 16.5t8.5 16.5l233 638q7 18 -3 27.5t-18 12.5v8h108l261 -683q9 -23 23 -38t34 -18v-8h-190zM323 629l-115 -321h233z
M508 946q-25 -36 -49.5 -63.5t-57.5 -27.5q-16 0 -39.5 4.5t-49.5 10t-50.5 10t-41.5 4.5q-21 0 -34 -8.5t-30 -34.5l-23 9q33 49 57 76.5t54 27.5q17 0 41.5 -4.5t50 -10.5t50 -10.5t41.5 -4.5q15 0 28 5t30 27z" />
    <glyph glyph-name="Adieresis" unicode="&#xc4;" horiz-adv-x="702" 
d="M506 0v8q11 1 17 7t8.5 14t1.5 18t-4 19l-70 193h-268l-70 -199q-2 -6 -3 -14.5t1 -16.5t9 -14t21 -7v-8h-143v8q7 1 15.5 6.5t15.5 13.5t12.5 16.5t8.5 16.5l233 638q7 18 -3 27.5t-18 12.5v8h108l261 -683q9 -23 23 -38t34 -18v-8h-190zM323 629l-115 -321h233z
M470 905q0 -23 -16 -39t-39 -16t-39.5 16t-16.5 39t16.5 39t39.5 16t39 -16t16 -39zM307 905q0 -23 -16.5 -39t-39.5 -16t-39 16t-16 39t16 39t39 16t39.5 -16t16.5 -39z" />
    <glyph glyph-name="Aring" unicode="&#xc5;" horiz-adv-x="704" 
d="M508 0v8q11 1 17 7t8.5 14t1.5 18t-4 19l-70 193h-268l-70 -199q-2 -6 -3 -14.5t1 -16.5t9 -14t21 -7v-8h-143v8q7 1 15.5 6.5t15.5 13.5t12.5 16.5t8.5 16.5l233 638q7 18 -3 27.5t-18 12.5v8h108l261 -683q9 -23 23 -38t34 -18v-8h-190zM325 629l-115 -321h233z
M438 899q0 -24 -9 -44t-25 -35t-37.5 -23t-45.5 -8t-45 8t-37 23t-25 35t-9 44t9 45.5t25 37.5t37 25t45 9t45.5 -9t37.5 -25t25 -37.5t9 -45.5zM396 899q0 32 -21.5 56.5t-53.5 24.5q-31 0 -52.5 -24.5t-21.5 -56.5q0 -31 21.5 -52.5t52.5 -21.5q32 0 53.5 21.5t21.5 52.5z
" />
    <glyph glyph-name="AE" unicode="&#xc6;" horiz-adv-x="890" 
d="M843 0h-426v8q23 3 31.5 21t8.5 58v172h-213l-98 -199q-3 -6 -4 -14.5t1 -16.5t8 -14t18 -7v-8h-149v8q20 5 35.5 21t24.5 34l276 542q13 25 25 47.5t17.5 40.5t0.5 29.5t-26 16.5v8h461l-14 -90l-10 1q-1 9 -3 16.5t-13.5 12t-38 7t-76.5 2.5h-122v-289h115q52 0 79 1
t39 5t15 10t7 17h11v-127h-11q-3 14 -9 22t-20.5 12t-40.5 5t-71 1h-114v-253q0 -21 4.5 -31.5t16.5 -14t34 -3.5h57q57 0 91.5 2.5t56 9.5t35 19t28.5 31l10 -5zM457 679l-190 -371h190v371z" />
    <glyph glyph-name="Ccedilla" unicode="&#xc7;" horiz-adv-x="738" 
d="M692 11h-4l-6 4t-16 2q-5 0 -22 -4.5t-43.5 -10.5t-60.5 -10.5t-72 -4.5h-12q-4 0 -6 1l-6 -55q9 0 23.5 -1t28.5 -7.5t24.5 -21t10.5 -42.5q0 -23 -13 -42.5t-33 -34.5t-43.5 -24t-45.5 -10l-11 21q36 6 63.5 28t27.5 52q0 14 -7 22.5t-18 13t-24.5 6t-27.5 1.5l10 97
q-72 8 -136 39.5t-111 82.5t-74.5 120.5t-27.5 154.5q0 76 29.5 143t83 117.5t128 80t164.5 29.5q34 0 64 -3t53 -6.5t37.5 -6.5t18.5 -3q8 0 13 2.5t8 4.5h6l33 -134l-10 -2q-12 19 -34 36t-50.5 30t-62.5 21t-72 8q-67 0 -123.5 -24t-97 -66t-63 -99.5t-22.5 -124.5
q0 -81 24 -146t67 -110.5t103 -70t132 -24.5q31 0 64 7.5t63 22t54.5 36.5t40.5 51l10 -2z" />
    <glyph glyph-name="Egrave" unicode="&#xc8;" 
d="M546 0h-441v8q23 3 31.5 21t8.5 58v573q0 37 -10 56.5t-35 22.5v8h276h156l-14 -92l-10 1q-1 9 -4.5 16.5t-17 12t-41.5 7t-78 2.5h-122v-278h115q52 0 81 1t43.5 5t19.5 10t9 17h11v-127h-11q-3 14 -11 22t-25 12t-45 5t-73 1h-114v-261q0 -21 4.5 -31.5t16.5 -14
t34 -3.5h57q57 0 94 2.5t61.5 9.5t40 19t30.5 31l10 -5zM201 978h113l69 -151h-63z" />
    <glyph glyph-name="Eacute" unicode="&#xc9;" horiz-adv-x="599" 
d="M546 0h-441v8q23 3 31.5 21t8.5 58v573q0 37 -10 56.5t-35 22.5v8h276h156l-14 -92l-10 1q-1 9 -4.5 16.5t-17 12t-41.5 7t-78 2.5h-122v-278h115q52 0 81 1t43.5 5t19.5 10t9 17h11v-127h-11q-3 14 -11 22t-25 12t-45 5t-73 1h-114v-261q0 -21 4.5 -31.5t16.5 -14
t34 -3.5h57q57 0 94 2.5t61.5 9.5t40 19t30.5 31l10 -5zM319 829h-63l69 151h113z" />
    <glyph glyph-name="Ecircumflex" unicode="&#xca;" horiz-adv-x="609" 
d="M556 0h-441v8q23 3 31.5 21t8.5 58v573q0 37 -10 56.5t-35 22.5v8h276h156l-14 -92l-10 1q-1 9 -4.5 16.5t-17 12t-41.5 7t-78 2.5h-122v-278h115q52 0 81 1t43.5 5t19.5 10t9 17h11v-127h-11q-3 14 -11 22t-25 12t-45 5t-73 1h-114v-261q0 -21 4.5 -31.5t16.5 -14
t34 -3.5h57q57 0 94 2.5t61.5 9.5t40 19t30.5 31l10 -5zM392 831l-74 102l-71 -102h-48l59 149h120l63 -149h-49z" />
    <glyph glyph-name="Edieresis" unicode="&#xcb;" horiz-adv-x="589" 
d="M546 0h-441v8q23 3 31.5 21t8.5 58v573q0 37 -10 56.5t-35 22.5v8h276h156l-14 -92l-10 1q-1 9 -4.5 16.5t-17 12t-41.5 7t-78 2.5h-122v-278h115q52 0 81 1t43.5 5t19.5 10t9 17h11v-127h-11q-3 14 -11 22t-25 12t-45 5t-73 1h-114v-261q0 -21 4.5 -31.5t16.5 -14
t34 -3.5h57q57 0 94 2.5t61.5 9.5t40 19t30.5 31l10 -5zM448 903q0 -23 -16 -39t-39 -16t-39.5 16t-16.5 39t16.5 39t39.5 16t39 -16t16 -39zM285 903q0 -23 -16.5 -39t-39.5 -16t-39 16t-16 39t16 39t39 16t39.5 -16t16.5 -39z" />
    <glyph glyph-name="Igrave" unicode="&#xcc;" horiz-adv-x="410" 
d="M137 0v8q32 4 38.5 21t6.5 58v573q0 26 -1.5 41t-6 22.5t-13.5 10.5t-24 5v8h193v-8q-14 -2 -23.5 -5t-15 -11.5t-7.5 -24t-2 -41.5v-567q0 -26 2 -41.5t7.5 -24t15 -11.5t23.5 -5v-8h-193zM90 979h113l69 -151h-63z" />
    <glyph glyph-name="Iacute" unicode="&#xcd;" horiz-adv-x="394" 
d="M110 0v8q32 4 38.5 21t6.5 58v573q0 26 -1.5 41t-6 22.5t-13.5 10.5t-24 5v8h193v-8q-14 -2 -23.5 -5t-15 -11.5t-7.5 -24t-2 -41.5v-567q0 -26 2 -41.5t7.5 -24t15 -11.5t23.5 -5v-8h-193zM209 828h-63l69 150h113z" />
    <glyph glyph-name="Icircumflex" unicode="&#xce;" horiz-adv-x="422" 
d="M136 0v8q32 4 38.5 21t6.5 58v573q0 26 -1.5 41t-6 22.5t-13.5 10.5t-24 5v8h193v-8q-14 -2 -23.5 -5t-15 -11.5t-7.5 -24t-2 -41.5v-567q0 -26 2 -41.5t7.5 -24t15 -11.5t23.5 -5v-8h-193zM283 828l-73 103l-72 -103h-48l60 150h120l62 -150h-49z" />
    <glyph glyph-name="Idieresis" unicode="&#xcf;" horiz-adv-x="422" 
d="M127 0v8q32 4 38.5 21t6.5 58v573q0 26 -1.5 41t-6 22.5t-13.5 10.5t-24 5v8h193v-8q-14 -2 -23.5 -5t-15 -11.5t-7.5 -24t-2 -41.5v-567q0 -26 2 -41.5t7.5 -24t15 -11.5t23.5 -5v-8h-193zM340 906q0 -23 -16 -39t-39 -16t-39.5 16t-16.5 39t16.5 39t39.5 16t39 -16
t16 -39zM177 906q0 -23 -16.5 -39t-39.5 -16t-39 16t-16 39t16 39t39 16t39.5 -16t16.5 -39z" />
    <glyph glyph-name="Eth" unicode="&#xd0;" horiz-adv-x="759" 
d="M730 372q0 -66 -18 -119.5t-48 -95t-69.5 -71.5t-83 -49t-87 -28t-82.5 -9h-280v8q9 1 17 4t13 11t8 23t3 41v273h-83v45h83v255q0 37 -8 56.5t-33 22.5v8h272q99 0 173.5 -34t124 -88t74 -120.5t24.5 -132.5zM626 357q0 74 -20 136.5t-58.5 107.5t-94.5 70t-128 25h-122
v-291h178v-45h-178v-260q0 -32 19.5 -40.5t64.5 -8.5q79 0 142 21t107 60.5t67 96.5t23 128z" />
    <glyph glyph-name="Ntilde" unicode="&#xd1;" horiz-adv-x="815" 
d="M762 739q-20 -4 -31.5 -21.5t-11.5 -55.5v-682l-540 649v-544q0 -29 9 -50.5t34 -26.5v-8h-142v8q9 2 17.5 5.5t15 11.5t10 22t3.5 36v571q0 24 -2.5 39t-7.5 24.5t-13.5 14t-20.5 7.5v8h129l454 -553v464q0 24 -2 39t-7.5 23t-13.5 12t-20 7v8h140v-8v0zM613 948
q-25 -36 -49.5 -63.5t-57.5 -27.5q-16 0 -39.5 4.5t-49.5 10t-50.5 10t-41.5 4.5q-21 0 -34 -8.5t-30 -34.5l-23 9q33 49 57 76.5t54 27.5q17 0 41.5 -4.5t50 -10.5t50 -10.5t41.5 -4.5q15 0 28 5t30 27l23 -10v0z" />
    <glyph glyph-name="Ograve" unicode="&#xd2;" horiz-adv-x="906" 
d="M836 374q0 -84 -27 -155.5t-76.5 -124t-120.5 -82t-159 -29.5q-101 0 -173.5 34.5t-119 89.5t-68.5 124.5t-22 140.5q0 74 21 144.5t67 125.5t119 88.5t176 33.5q108 0 181.5 -32.5t118 -86.5t64 -124.5t19.5 -146.5zM728 372q0 70 -20 132t-56.5 108t-87.5 73t-112 27
q-62 0 -112.5 -21t-86.5 -63t-55.5 -105.5t-19.5 -148.5q0 -78 17.5 -140.5t52 -107t86.5 -68t121 -23.5q61 0 111 21.5t86 64t56 105.5t20 146zM308 979h113l69 -151h-63z" />
    <glyph glyph-name="Oacute" unicode="&#xd3;" horiz-adv-x="906" 
d="M836 374q0 -84 -27 -155.5t-76.5 -124t-120.5 -82t-159 -29.5q-101 0 -173.5 34.5t-119 89.5t-68.5 124.5t-22 140.5q0 74 21 144.5t67 125.5t119 88.5t176 33.5q108 0 181.5 -32.5t118 -86.5t64 -124.5t19.5 -146.5zM728 372q0 70 -20 132t-56.5 108t-87.5 73t-112 27
q-62 0 -112.5 -21t-86.5 -63t-55.5 -105.5t-19.5 -148.5q0 -78 17.5 -140.5t52 -107t86.5 -68t121 -23.5q61 0 111 21.5t86 64t56 105.5t20 146zM437 827h-63l69 151h113z" />
    <glyph glyph-name="Ocircumflex" unicode="&#xd4;" horiz-adv-x="906" 
d="M836 374q0 -84 -27 -155.5t-76.5 -124t-120.5 -82t-159 -29.5q-101 0 -173.5 34.5t-119 89.5t-68.5 124.5t-22 140.5q0 74 21 144.5t67 125.5t119 88.5t176 33.5q108 0 181.5 -32.5t118 -86.5t64 -124.5t19.5 -146.5zM728 372q0 70 -20 132t-56.5 108t-87.5 73t-112 27
q-62 0 -112.5 -21t-86.5 -63t-55.5 -105.5t-19.5 -148.5q0 -78 17.5 -140.5t52 -107t86.5 -68t121 -23.5q61 0 111 21.5t86 64t56 105.5t20 146zM499 829l-73 103l-72 -103h-48l60 150h120l62 -150h-49z" />
    <glyph glyph-name="Otilde" unicode="&#xd5;" horiz-adv-x="906" 
d="M836 374q0 -84 -27 -155.5t-76.5 -124t-120.5 -82t-159 -29.5q-101 0 -173.5 34.5t-119 89.5t-68.5 124.5t-22 140.5q0 74 21 144.5t67 125.5t119 88.5t176 33.5q108 0 181.5 -32.5t118 -86.5t64 -124.5t19.5 -146.5zM728 372q0 70 -20 132t-56.5 108t-87.5 73t-112 27
q-62 0 -112.5 -21t-86.5 -63t-55.5 -105.5t-19.5 -148.5q0 -78 17.5 -140.5t52 -107t86.5 -68t121 -23.5q61 0 111 21.5t86 64t56 105.5t20 146zM617 950q-25 -36 -49.5 -63.5t-57.5 -27.5q-16 0 -39.5 4.5t-49.5 10t-50.5 10t-41.5 4.5q-21 0 -34 -8.5t-30 -34.5l-23 9
q33 49 57 76.5t54 27.5q17 0 41.5 -4.5t50 -10.5t50 -10.5t41.5 -4.5q15 0 28 5t30 27l23 -10v0z" />
    <glyph glyph-name="Odieresis" unicode="&#xd6;" horiz-adv-x="906" 
d="M836 374q0 -84 -27 -155.5t-76.5 -124t-120.5 -82t-159 -29.5q-101 0 -173.5 34.5t-119 89.5t-68.5 124.5t-22 140.5q0 74 21 144.5t67 125.5t119 88.5t176 33.5q108 0 181.5 -32.5t118 -86.5t64 -124.5t19.5 -146.5zM728 372q0 70 -20 132t-56.5 108t-87.5 73t-112 27
q-62 0 -112.5 -21t-86.5 -63t-55.5 -105.5t-19.5 -148.5q0 -78 17.5 -140.5t52 -107t86.5 -68t121 -23.5q61 0 111 21.5t86 64t56 105.5t20 146zM585 903q0 -23 -16 -39t-39 -16t-39.5 16t-16.5 39t16.5 39t39.5 16t39 -16t16 -39zM422 903q0 -23 -16.5 -39t-39.5 -16
t-39 16t-16 39t16 39t39 16t39.5 -16t16.5 -39z" />
    <glyph glyph-name="multiply" unicode="&#xd7;" horiz-adv-x="504" 
d="M412 101l-160 160l-160 -160l-35 40l157 157l-157 159l35 39l160 -160l160 160l35 -39l-157 -158l157 -158z" />
    <glyph glyph-name="Oslash" unicode="&#xd8;" horiz-adv-x="902" 
d="M830 384q0 -89 -25 -162.5t-73 -126.5t-117 -82t-156 -29q-80 0 -139 20t-102 52l-60 -72l-39 35l60 71q-32 33 -52.5 70t-32.5 73.5t-17 70t-5 57.5q0 79 22 151t68.5 126.5t118 86.5t170.5 32q73 0 129 -18.5t99 -50.5l60 73l40 -35l-60 -72q30 -30 51 -65t34.5 -71
t19.5 -70.5t6 -63.5zM632 632q-35 35 -81 54.5t-101 19.5t-104.5 -19.5t-87 -61t-60 -105t-22.5 -150.5q0 -54 13 -111t44 -105zM727 378q0 62 -16 116t-45 97l-401 -479q33 -35 80 -56t112 -21q60 0 110 23t85.5 66.5t55 107.5t19.5 146z" />
    <glyph glyph-name="Ugrave" unicode="&#xd9;" horiz-adv-x="886" 
d="M651 0q-1 5 -3 16.5t-4 25.5t-3.5 28.5t-2.5 24.5q-8 -16 -26 -36t-46.5 -37.5t-69 -29.5t-92.5 -12q-21 0 -48.5 3.5t-56.5 13t-57 26.5t-49.5 45t-35 68t-13.5 95v406q0 31 -3.5 50.5t-10.5 30.5t-16 15.5t-20 5.5v8h194v-8q-8 -3 -16 -6.5t-14.5 -13.5t-10.5 -29
t-4 -52v-402q0 -91 47.5 -144.5t139.5 -53.5q36 0 72 10.5t65.5 34t48 61t18.5 91.5v407q0 20 -1 36.5t-6 29.5t-15 21t-27 10v8h193v-8q-11 -2 -19 -5.5t-13.5 -14t-8.5 -29.5t-3 -52v-477q0 -74 10 -113.5t42 -39.5v-8h-135zM300 979h113l69 -151h-63z" />
    <glyph glyph-name="Uacute" unicode="&#xda;" horiz-adv-x="886" 
d="M651 0q-1 5 -3 16.5t-4 25.5t-3.5 28.5t-2.5 24.5q-8 -16 -26 -36t-46.5 -37.5t-69 -29.5t-92.5 -12q-21 0 -48.5 3.5t-56.5 13t-57 26.5t-49.5 45t-35 68t-13.5 95v406q0 31 -3.5 50.5t-10.5 30.5t-16 15.5t-20 5.5v8h194v-8q-8 -3 -16 -6.5t-14.5 -13.5t-10.5 -29
t-4 -52v-402q0 -91 47.5 -144.5t139.5 -53.5q36 0 72 10.5t65.5 34t48 61t18.5 91.5v407q0 20 -1 36.5t-6 29.5t-15 21t-27 10v8h193v-8q-11 -2 -19 -5.5t-13.5 -14t-8.5 -29.5t-3 -52v-477q0 -74 10 -113.5t42 -39.5v-8h-135zM414 826h-63l69 151h113z" />
    <glyph glyph-name="Ucircumflex" unicode="&#xdb;" horiz-adv-x="887" 
d="M652 0q-1 5 -3 16.5t-4 25.5t-3.5 28.5t-2.5 24.5q-8 -16 -26 -36t-46.5 -37.5t-69 -29.5t-92.5 -12q-21 0 -48.5 3.5t-56.5 13t-57 26.5t-49.5 45t-35 68t-13.5 95v406q0 31 -3.5 50.5t-10.5 30.5t-16 15.5t-20 5.5v8h194v-8q-8 -3 -16 -6.5t-14.5 -13.5t-10.5 -29
t-4 -52v-402q0 -91 47.5 -144.5t139.5 -53.5q36 0 72 10.5t65.5 34t48 61t18.5 91.5v407q0 20 -1 36.5t-6 29.5t-15 21t-27 10v8h193v-8q-11 -2 -19 -5.5t-13.5 -14t-8.5 -29.5t-3 -52v-477q0 -74 10 -113.5t42 -39.5v-8h-135zM488 830l-73 102l-72 -102h-48l60 149h120
l62 -149h-49z" />
    <glyph glyph-name="Udieresis" unicode="&#xdc;" horiz-adv-x="887" 
d="M653 0q-1 5 -3 16.5t-4 25.5t-3.5 28.5t-2.5 24.5q-8 -16 -26 -36t-46.5 -37.5t-69 -29.5t-92.5 -12q-21 0 -48.5 3.5t-56.5 13t-57 26.5t-49.5 45t-35 68t-13.5 95v406q0 31 -3.5 50.5t-10.5 30.5t-16 15.5t-20 5.5v8h194v-8q-8 -3 -16 -6.5t-14.5 -13.5t-10.5 -29
t-4 -52v-402q0 -91 47.5 -144.5t139.5 -53.5q36 0 72 10.5t65.5 34t48 61t18.5 91.5v407q0 20 -1 36.5t-6 29.5t-15 21t-27 10v8h193v-8q-11 -2 -19 -5.5t-13.5 -14t-8.5 -29.5t-3 -52v-477q0 -74 10 -113.5t42 -39.5v-8h-135zM542 904q0 -23 -16 -39t-39 -16t-39.5 16
t-16.5 39t16.5 39t39.5 16t39 -16t16 -39zM379 904q0 -23 -16.5 -39t-39.5 -16t-39 16t-16 39t16 39t39 16t39.5 -16t16.5 -39z" />
    <glyph glyph-name="Yacute" unicode="&#xdd;" horiz-adv-x="640" 
d="M643 739q-24 -3 -38.5 -16.5t-30.5 -43.5l-206 -384v-233q0 -25 13.5 -38.5t27.5 -15.5v-8h-184v8q18 2 31 13.5t13 40.5v236l-237 405q-8 14 -22.5 23.5t-26.5 12.5v8h203v-8q-20 -3 -28 -18t6 -39l178 -327l169 327q9 16 8.5 27t-6 17t-12.5 9t-12 4v8h154v-8zM335 829
h-63l69 151h113z" />
    <glyph glyph-name="Thorn" unicode="&#xde;" horiz-adv-x="540" 
d="M516 380q0 -48 -18 -84t-47.5 -61t-66.5 -37.5t-75 -12.5q-15 0 -32 1t-28 5l-21 43q13 -2 21 -3t21 -1q31 1 58 11t46.5 29t31 46t11.5 62q0 41 -13 71.5t-34.5 51t-50.5 30.5t-61 10h-71v-451q0 -48 13 -63.5t35 -18.5v-8h-187v8q23 3 31 21t8 58v573q0 26 -1.5 41
t-6 22.5t-13 10.5t-23.5 5v8h190v-8q-14 -2 -23 -5t-14 -11.5t-7 -24t-2 -41.5v-70h65q58 0 106.5 -11.5t83.5 -36.5t54.5 -64.5t19.5 -94.5z" />
    <glyph glyph-name="germandbls" unicode="&#xdf;" horiz-adv-x="603" 
d="M559 217q0 -59 -18 -101.5t-48.5 -70t-70 -40.5t-82.5 -13q-22 0 -37.5 2.5t-26.5 6.5t-18 7.5l-13 6.5l-3 58h11q4 -6 10 -13t15 -12t22.5 -8.5t33.5 -3.5q25 0 48 9t40.5 29t28 52t10.5 78q0 37 -3 65.5t-12 52.5t-25 47t-42 49q-20 15 -35 33q-14 15 -24.5 35.5
t-10.5 43.5q0 43 26.5 63.5t64.5 28.5q5 4 6.5 14t1.5 18q-1 63 -24 100.5t-79 37.5q-29 0 -50.5 -13t-35.5 -34.5t-21 -50.5t-7 -61v-633h-144v8q22 2 33 11.5t15.5 30t5 53t0.5 80.5v433q0 28 9.5 65t33.5 70t64.5 56t102.5 23q91 0 142 -49.5t51 -134.5q0 -6 -1 -15
t-3.5 -16.5t-6 -13t-7.5 -5.5q-21 -1 -44 -2.5t-43 -7t-33 -17t-13 -31.5t10 -37.5t25 -33t32.5 -29t31.5 -24.5q19 -16 38.5 -34.5t34.5 -41.5t24.5 -53t9.5 -68z" />
    <glyph glyph-name="agrave" unicode="&#xe0;" horiz-adv-x="522" 
d="M367 0l-16 63q-9 -11 -20 -24.5t-29 -25.5t-44 -20t-65 -8q-24 0 -51.5 6.5t-51 23t-39 45t-15.5 71.5q0 37 15 63.5t40 43.5t57.5 26.5t67.5 14.5t69.5 6t64.5 1q0 31 -1 63t-10.5 58.5t-32.5 43.5t-68 17q-36 0 -62.5 -11t-45.5 -25.5t-29.5 -29t-13.5 -20.5h-8l8 93
q4 2 17.5 8.5t34.5 13.5t49.5 12.5t61.5 5.5q77 0 117 -22t57.5 -55t19 -72.5t1.5 -75.5v-138q0 -24 0.5 -48.5t5 -44.5t14.5 -34t29 -17v-8h-127zM350 250q-55 0 -96 -4t-68 -16.5t-40 -36.5t-13 -64q0 -18 5 -35.5t16 -31t28 -22t42 -8.5q51 0 77 26t37 61.5t11.5 72
t0.5 58.5zM153 748h113l69 -151h-63z" />
    <glyph glyph-name="aacute" unicode="&#xe1;" horiz-adv-x="522" 
d="M367 0l-16 63q-9 -11 -20 -24.5t-29 -25.5t-44 -20t-65 -8q-24 0 -51.5 6.5t-51 23t-39 45t-15.5 71.5q0 37 15 63.5t40 43.5t57.5 26.5t67.5 14.5t69.5 6t64.5 1q0 31 -1 63t-10.5 58.5t-32.5 43.5t-68 17q-36 0 -62.5 -11t-45.5 -25.5t-29.5 -29t-13.5 -20.5h-8l8 93
q4 2 17.5 8.5t34.5 13.5t49.5 12.5t61.5 5.5q77 0 117 -22t57.5 -55t19 -72.5t1.5 -75.5v-138q0 -24 0.5 -48.5t5 -44.5t14.5 -34t29 -17v-8h-127zM350 250q-55 0 -96 -4t-68 -16.5t-40 -36.5t-13 -64q0 -18 5 -35.5t16 -31t28 -22t42 -8.5q51 0 77 26t37 61.5t11.5 72
t0.5 58.5zM280 597h-63l69 151h113z" />
    <glyph glyph-name="acircumflex" unicode="&#xe2;" horiz-adv-x="522" 
d="M367 0l-16 63q-9 -11 -20 -24.5t-29 -25.5t-44 -20t-65 -8q-24 0 -51.5 6.5t-51 23t-39 45t-15.5 71.5q0 37 15 63.5t40 43.5t57.5 26.5t67.5 14.5t69.5 6t64.5 1q0 31 -1 63t-10.5 58.5t-32.5 43.5t-68 17q-36 0 -62.5 -11t-45.5 -25.5t-29.5 -29t-13.5 -20.5h-8l8 93
q4 2 17.5 8.5t34.5 13.5t49.5 12.5t61.5 5.5q77 0 117 -22t57.5 -55t19 -72.5t1.5 -75.5v-138q0 -24 0.5 -48.5t5 -44.5t14.5 -34t29 -17v-8h-127zM350 250q-55 0 -96 -4t-68 -16.5t-40 -36.5t-13 -64q0 -18 5 -35.5t16 -31t28 -22t42 -8.5q51 0 77 26t37 61.5t11.5 72
t0.5 58.5zM338 597l-73 103l-72 -103h-48l60 150h120l62 -150h-49z" />
    <glyph glyph-name="atilde" unicode="&#xe3;" horiz-adv-x="522" 
d="M367 0l-16 63q-9 -11 -20 -24.5t-29 -25.5t-44 -20t-65 -8q-24 0 -51.5 6.5t-51 23t-39 45t-15.5 71.5q0 37 15 63.5t40 43.5t57.5 26.5t67.5 14.5t69.5 6t64.5 1q0 31 -1 63t-10.5 58.5t-32.5 43.5t-68 17q-36 0 -62.5 -11t-45.5 -25.5t-29.5 -29t-13.5 -20.5h-8l8 93
q4 2 17.5 8.5t34.5 13.5t49.5 12.5t61.5 5.5q77 0 117 -22t57.5 -55t19 -72.5t1.5 -75.5v-138q0 -24 0.5 -48.5t5 -44.5t14.5 -34t29 -17v-8h-127zM350 250q-55 0 -96 -4t-68 -16.5t-40 -36.5t-13 -64q0 -18 5 -35.5t16 -31t28 -22t42 -8.5q51 0 77 26t37 61.5t11.5 72
t0.5 58.5zM439 716q-25 -36 -49.5 -63.5t-57.5 -27.5q-16 0 -39.5 4.5t-49.5 10t-50.5 10t-41.5 4.5q-21 0 -34 -8.5t-30 -34.5l-23 9q33 49 57 76.5t54 27.5q17 0 41.5 -4.5t50 -10.5t50 -10.5t41.5 -4.5q15 0 28 5t30 27l23 -10v0z" />
    <glyph glyph-name="adieresis" unicode="&#xe4;" horiz-adv-x="522" 
d="M367 0l-16 63q-9 -11 -20 -24.5t-29 -25.5t-44 -20t-65 -8q-24 0 -51.5 6.5t-51 23t-39 45t-15.5 71.5q0 37 15 63.5t40 43.5t57.5 26.5t67.5 14.5t69.5 6t64.5 1q0 31 -1 63t-10.5 58.5t-32.5 43.5t-68 17q-36 0 -62.5 -11t-45.5 -25.5t-29.5 -29t-13.5 -20.5h-8l8 93
q4 2 17.5 8.5t34.5 13.5t49.5 12.5t61.5 5.5q77 0 117 -22t57.5 -55t19 -72.5t1.5 -75.5v-138q0 -24 0.5 -48.5t5 -44.5t14.5 -34t29 -17v-8h-127zM350 250q-55 0 -96 -4t-68 -16.5t-40 -36.5t-13 -64q0 -18 5 -35.5t16 -31t28 -22t42 -8.5q51 0 77 26t37 61.5t11.5 72
t0.5 58.5zM403 677q0 -23 -16 -39t-39 -16t-39.5 16t-16.5 39t16.5 39t39.5 16t39 -16t16 -39zM240 677q0 -23 -16.5 -39t-39.5 -16t-39 16t-16 39t16 39t39 16t39.5 -16t16.5 -39z" />
    <glyph glyph-name="aring" unicode="&#xe5;" horiz-adv-x="522" 
d="M367 0l-16 63q-9 -11 -20 -24.5t-29 -25.5t-44 -20t-65 -8q-24 0 -51.5 6.5t-51 23t-39 45t-15.5 71.5q0 37 15 63.5t40 43.5t57.5 26.5t67.5 14.5t69.5 6t64.5 1q0 31 -1 63t-10.5 58.5t-32.5 43.5t-68 17q-36 0 -62.5 -11t-45.5 -25.5t-29.5 -29t-13.5 -20.5h-8l8 93
q4 2 17.5 8.5t34.5 13.5t49.5 12.5t61.5 5.5q77 0 117 -22t57.5 -55t19 -72.5t1.5 -75.5v-138q0 -24 0.5 -48.5t5 -44.5t14.5 -34t29 -17v-8h-127zM350 250q-55 0 -96 -4t-68 -16.5t-40 -36.5t-13 -64q0 -18 5 -35.5t16 -31t28 -22t42 -8.5q51 0 77 26t37 61.5t11.5 72
t0.5 58.5zM381 693q0 -24 -9 -44t-25 -35t-37.5 -23t-45.5 -8t-45 8t-37 23t-25 35t-9 44t9 45.5t25 37.5t37 25t45 9t45.5 -9t37.5 -25t25 -37.5t9 -45.5zM339 693q0 32 -21.5 56.5t-53.5 24.5q-31 0 -52.5 -24.5t-21.5 -56.5q0 -31 21.5 -52.5t52.5 -21.5q32 0 53.5 21.5
t21.5 52.5z" />
    <glyph glyph-name="ae" unicode="&#xe6;" horiz-adv-x="830" 
d="M785 248h-21.5t-28 0.5t-46 0.5h-74.5h-52.5h-51.5h-41t-20 -1q0 -35 7 -74t24.5 -72t48 -55t78.5 -22q32 0 57.5 8.5t44.5 21t32 26t21 22.5l5 -4l-17 -79q-15 -8 -33.5 -14.5t-39 -11.5t-40.5 -8t-37 -3q-95 0 -149 36t-77 91q-21 -56 -63 -90.5t-119 -34.5
q-24 0 -51.5 6.5t-51 23t-39 45t-15.5 71.5q0 37 15 63.5t39.5 43.5t57 26.5t67.5 14.5t70.5 6t66.5 1q0 31 -1 63t-11.5 58.5t-33.5 43.5t-68 17q-36 0 -62.5 -11t-45.5 -25.5t-29.5 -29t-13.5 -20.5h-8l8 93q4 2 17.5 8.5t34.5 13.5t49.5 12.5t61.5 5.5q39 0 66 -7
t46 -18.5t31 -27t20 -32.5q55 87 165 87q64 0 104.5 -22t63.5 -59t31 -86t8 -102zM682 289q0 31 -5 64.5t-17.5 61.5t-33.5 46.5t-52 18.5q-59 0 -89.5 -51.5t-32.5 -139.5q2 0 17.5 -0.5t35.5 -0.5h40h31h37h33t24.5 0.5t11.5 0.5zM352 250q-55 0 -96 -4t-68.5 -16.5
t-41 -36.5t-13.5 -64q0 -18 5 -35.5t16 -31t28 -22t42 -8.5q46 0 71.5 21.5t38 54t15.5 71t3 71.5z" />
    <glyph glyph-name="ccedilla" unicode="&#xe7;" horiz-adv-x="466" 
d="M437 16q-27 -16 -67.5 -24.5t-80.5 -8.5l-8 -75q9 0 23.5 -1t28.5 -7.5t24.5 -21t10.5 -42.5q0 -23 -13 -42.5t-33 -34.5t-43.5 -24t-45.5 -10l-11 21q36 6 63.5 28t27.5 52q0 14 -7 22.5t-18 13t-24.5 6t-27.5 1.5l12 117q-62 10 -100 40.5t-59 68.5t-28.5 77t-7.5 67
q0 60 15.5 110t44.5 86t69.5 56.5t91.5 20.5q29 0 49 -3t33.5 -6.5t23 -6.5t18.5 -3q6 0 11 3l6 4h11l13 -137q0 -1 -2 -1t-4 -0.5t-4 -0.5q-14 45 -45 76.5t-84 31.5q-27 0 -53 -9t-46.5 -33t-33 -67t-12.5 -110q0 -57 12 -99t32 -69.5t46.5 -41t55.5 -13.5q42 0 80 18
t65 55l9 -4z" />
    <glyph glyph-name="egrave" unicode="&#xe8;" horiz-adv-x="558" 
d="M513 271q0 -8 -0.5 -11t-0.5 -12h-354q0 -34 7.5 -73t25.5 -72.5t48.5 -55.5t77.5 -22q32 0 60 8.5t50 21t37.5 26t23.5 22.5l6 -3l-17 -80q-15 -8 -36.5 -14.5t-44.5 -11.5t-46 -8t-40 -3q-81 0 -131.5 28.5t-78.5 70t-37.5 88.5t-9.5 84q0 55 16 103t46.5 83.5t74 56
t97.5 20.5q65 0 108.5 -20.5t69.5 -55t37 -78.5t11 -92zM407 289q-4 103 -37 145.5t-85 42.5q-31 0 -54.5 -18.5t-39.5 -46.5t-24 -61t-8 -62h248zM169 748h113l69 -151h-63z" />
    <glyph glyph-name="eacute" unicode="&#xe9;" horiz-adv-x="558" 
d="M513 271q0 -8 -0.5 -11t-0.5 -12h-354q0 -34 7.5 -73t25.5 -72.5t48.5 -55.5t77.5 -22q32 0 60 8.5t50 21t37.5 26t23.5 22.5l6 -3l-17 -80q-15 -8 -36.5 -14.5t-44.5 -11.5t-46 -8t-40 -3q-81 0 -131.5 28.5t-78.5 70t-37.5 88.5t-9.5 84q0 55 16 103t46.5 83.5t74 56
t97.5 20.5q65 0 108.5 -20.5t69.5 -55t37 -78.5t11 -92zM407 289q-4 103 -37 145.5t-85 42.5q-31 0 -54.5 -18.5t-39.5 -46.5t-24 -61t-8 -62h248zM294 597h-63l69 151h113z" />
    <glyph glyph-name="ecircumflex" unicode="&#xea;" horiz-adv-x="558" 
d="M513 271q0 -8 -0.5 -11t-0.5 -12h-354q0 -34 7.5 -73t25.5 -72.5t48.5 -55.5t77.5 -22q32 0 60 8.5t50 21t37.5 26t23.5 22.5l6 -3l-17 -80q-15 -8 -36.5 -14.5t-44.5 -11.5t-46 -8t-40 -3q-81 0 -131.5 28.5t-78.5 70t-37.5 88.5t-9.5 84q0 55 16 103t46.5 83.5t74 56
t97.5 20.5q65 0 108.5 -20.5t69.5 -55t37 -78.5t11 -92zM407 289q-4 103 -37 145.5t-85 42.5q-31 0 -54.5 -18.5t-39.5 -46.5t-24 -61t-8 -62h248zM372 597l-73 103l-71 -103h-48l59 150h120l62 -150h-49z" />
    <glyph glyph-name="edieresis" unicode="&#xeb;" horiz-adv-x="558" 
d="M513 271q0 -8 -0.5 -11t-0.5 -12h-354q0 -34 7.5 -73t25.5 -72.5t48.5 -55.5t77.5 -22q32 0 60 8.5t50 21t37.5 26t23.5 22.5l6 -3l-17 -80q-15 -8 -36.5 -14.5t-44.5 -11.5t-46 -8t-40 -3q-81 0 -131.5 28.5t-78.5 70t-37.5 88.5t-9.5 84q0 55 16 103t46.5 83.5t74 56
t97.5 20.5q65 0 108.5 -20.5t69.5 -55t37 -78.5t11 -92zM407 289q-4 103 -37 145.5t-85 42.5q-31 0 -54.5 -18.5t-39.5 -46.5t-24 -61t-8 -62h248zM431 677q0 -23 -16 -39t-39 -16t-39.5 16t-16.5 39t16.5 39t39.5 16t39 -16t16 -39zM268 677q0 -23 -16.5 -39t-39.5 -16
t-39 16t-16 39t16 39t39 16t39.5 -16t16.5 -39z" />
    <glyph glyph-name="igrave" unicode="&#xec;" horiz-adv-x="279" 
d="M53 0v8q10 3 18 5.5t12.5 10.5t7 24t2.5 45v295q0 28 -2 45t-6.5 26t-11.5 12t-17 3l-2 10l136 29v-423q0 -37 5 -56.5t34 -25.5v-8h-176zM22 748h113l69 -151h-63z" />
    <glyph glyph-name="iacute" unicode="&#xed;" horiz-adv-x="279" 
d="M63 0v8q10 3 18 5.5t12.5 10.5t7 24t2.5 45v295q0 28 -2 45t-6.5 26t-11.5 12t-17 3l-2 10l136 29v-423q0 -37 5 -56.5t34 -25.5v-8h-176zM163 597h-63l68 151h113z" />
    <glyph glyph-name="icircumflex" unicode="&#xee;" horiz-adv-x="279" 
d="M219 577l-82 113l-81 -113h-48l69 170h120l70 -170h-48zM49 0v8q10 3 18 5.5t12.5 10.5t7 24t2.5 45v295q0 28 -2 45t-6.5 26t-11.5 12t-17 3l-2 10l136 29v-423q0 -37 5 -56.5t34 -25.5v-8h-176z" />
    <glyph glyph-name="idieresis" unicode="&#xef;" horiz-adv-x="279" 
d="M58 0v8q10 3 18 5.5t12.5 10.5t7 24t2.5 45v295q0 28 -2 45t-6.5 26t-11.5 12t-17 3l-2 10l136 29v-423q0 -37 5 -56.5t34 -25.5v-8h-176zM273 677q0 -23 -16 -39t-39 -16t-39.5 16t-16.5 39t16.5 39t39.5 16t39 -16t16 -39zM110 677q0 -23 -16.5 -39t-39.5 -16t-39 16
t-16 39t16 39t39 16t39.5 -16t16.5 -39z" />
    <glyph glyph-name="eth" unicode="&#xf0;" horiz-adv-x="610" 
d="M557 251q0 -49 -14.5 -96.5t-45 -85t-79.5 -60.5t-118 -23q-71 0 -118 25.5t-76 65t-41 86t-12 88.5q0 39 10.5 85.5t39.5 87t80 67.5t133 27q26 0 51.5 -4t45.5 -12q-2 13 -8 31.5t-14.5 38.5t-19.5 40.5t-24 37.5l-125 -72q-8 -5 -13 1q-2 3 -5.5 10.5t-5.5 9.5
q-4 6 4 11l128 74q-5 7 -21.5 24t-37 35t-41.5 33t-36 18l39 26q54 -21 89 -51t62 -54l120 69q3 -1 6 -0.5t5 -1.5q1 -2 5 -9.5t6 -10.5t-1 -5t-5 -7l-112 -65q39 -45 67 -98t46 -109.5t27 -114t9 -112.5zM458 250q0 61 -11.5 104.5t-32.5 70.5t-49.5 39.5t-62.5 12.5
q-31 0 -58.5 -14t-47.5 -42.5t-32 -73.5t-12 -106q0 -38 7.5 -76t24.5 -69t46 -50.5t73 -19.5q32 0 60.5 12t49.5 39t33 69.5t12 103.5z" />
    <glyph glyph-name="ntilde" unicode="&#xf1;" horiz-adv-x="625" 
d="M391 0v8q10 3 18 5.5t12.5 10.5t7 24t2.5 45v244q0 54 -24 88t-73 34q-53 0 -81.5 -21.5t-41 -47.5t-14.5 -49t-2 -26v-225q0 -37 5 -56.5t34 -25.5v-8h-176v8q10 3 18 5.5t12.5 10.5t7 24t2.5 45v295q0 28 -2 45t-6.5 26t-11.5 12t-17 3l-2 10l131 29v-79q14 15 30 29.5
t36 26t45.5 18t58.5 6.5q168 0 168 -177v-247q0 -37 5 -56.5t34 -25.5v-8h-176zM496 719q-25 -36 -49.5 -63.5t-57.5 -27.5q-16 0 -39.5 4.5t-49.5 10t-50.5 10t-41.5 4.5q-21 0 -34 -8.5t-30 -34.5l-23 9q33 49 57 76.5t54 27.5q17 0 41.5 -4.5t50 -10.5t50 -10.5
t41.5 -4.5q15 0 28 5t30 27l23 -10v0z" />
    <glyph glyph-name="ograve" unicode="&#xf2;" horiz-adv-x="610" 
d="M557 251q0 -49 -14.5 -96.5t-45 -85t-79.5 -60.5t-118 -23q-71 0 -118 25.5t-76 65t-41 86t-12 88.5q0 39 10.5 85.5t39.5 87t80 67.5t133 27q60 0 105 -21.5t75.5 -58t45.5 -85t15 -102.5zM453 250q0 61 -11 104.5t-30.5 70.5t-47.5 39.5t-62 12.5q-31 0 -58 -14
t-46.5 -42.5t-30.5 -73.5t-11 -106q0 -38 6.5 -76t23.5 -69t45 -50.5t72 -19.5q32 0 59.5 12t47.5 39t31.5 69.5t11.5 103.5zM179 748h113l69 -151h-63z" />
    <glyph glyph-name="oacute" unicode="&#xf3;" horiz-adv-x="610" 
d="M557 251q0 -49 -14.5 -96.5t-45 -85t-79.5 -60.5t-118 -23q-71 0 -118 25.5t-76 65t-41 86t-12 88.5q0 39 10.5 85.5t39.5 87t80 67.5t133 27q60 0 105 -21.5t75.5 -58t45.5 -85t15 -102.5zM453 250q0 61 -11 104.5t-30.5 70.5t-47.5 39.5t-62 12.5q-31 0 -58 -14
t-46.5 -42.5t-30.5 -73.5t-11 -106q0 -38 6.5 -76t23.5 -69t45 -50.5t72 -19.5q32 0 59.5 12t47.5 39t31.5 69.5t11.5 103.5zM315 597h-63l69 151h113z" />
    <glyph glyph-name="ocircumflex" unicode="&#xf4;" horiz-adv-x="610" 
d="M557 251q0 -49 -14.5 -96.5t-45 -85t-79.5 -60.5t-118 -23q-71 0 -118 25.5t-76 65t-41 86t-12 88.5q0 39 10.5 85.5t39.5 87t80 67.5t133 27q60 0 105 -21.5t75.5 -58t45.5 -85t15 -102.5zM453 250q0 61 -11 104.5t-30.5 70.5t-47.5 39.5t-62 12.5q-31 0 -58 -14
t-46.5 -42.5t-30.5 -73.5t-11 -106q0 -38 6.5 -76t23.5 -69t45 -50.5t72 -19.5q32 0 59.5 12t47.5 39t31.5 69.5t11.5 103.5zM379 597l-73 103l-72 -103h-48l60 150h120l62 -150h-49z" />
    <glyph glyph-name="otilde" unicode="&#xf5;" horiz-adv-x="610" 
d="M506 669q-25 -36 -49.5 -63.5t-57.5 -27.5q-16 0 -39.5 4.5t-49.5 10t-50.5 10t-41.5 4.5q-21 0 -34 -8.5t-30 -34.5l-23 9q33 49 57 76.5t54 27.5q17 0 41.5 -4.5t50 -10.5t50 -10.5t41.5 -4.5q15 0 28 5t30 27zM557 251q0 -49 -14.5 -96.5t-45 -85t-79.5 -60.5
t-118 -23q-71 0 -118 25.5t-76 65t-41 86t-12 88.5q0 39 10.5 85.5t39.5 87t80 67.5t133 27q60 0 105 -21.5t75.5 -58t45.5 -85t15 -102.5zM453 250q0 61 -11 104.5t-30.5 70.5t-47.5 39.5t-62 12.5q-31 0 -58 -14t-46.5 -42.5t-30.5 -73.5t-11 -106q0 -38 6.5 -76t23.5 -69
t45 -50.5t72 -19.5q32 0 59.5 12t47.5 39t31.5 69.5t11.5 103.5z" />
    <glyph glyph-name="odieresis" unicode="&#xf6;" horiz-adv-x="610" 
d="M557 251q0 -49 -14.5 -96.5t-45 -85t-79.5 -60.5t-118 -23q-71 0 -118 25.5t-76 65t-41 86t-12 88.5q0 39 10.5 85.5t39.5 87t80 67.5t133 27q60 0 105 -21.5t75.5 -58t45.5 -85t15 -102.5zM453 250q0 61 -11 104.5t-30.5 70.5t-47.5 39.5t-62 12.5q-31 0 -58 -14
t-46.5 -42.5t-30.5 -73.5t-11 -106q0 -38 6.5 -76t23.5 -69t45 -50.5t72 -19.5q32 0 59.5 12t47.5 39t31.5 69.5t11.5 103.5zM439 677q0 -23 -16 -39t-39 -16t-39.5 16t-16.5 39t16.5 39t39.5 16t39 -16t16 -39zM276 677q0 -23 -16.5 -39t-39.5 -16t-39 16t-16 39t16 39
t39 16t39.5 -16t16.5 -39z" />
    <glyph glyph-name="divide" unicode="&#xf7;" 
d="M338 378q0 -24 -17 -41.5t-41 -17.5q-25 0 -42 17.5t-17 41.5q0 25 17 42t42 17q24 0 41 -17t17 -42zM45 224v52h469v-52h-469zM338 121q0 -24 -17 -41.5t-41 -17.5q-25 0 -42 17.5t-17 41.5q0 25 17 42t42 17q24 0 41 -17t17 -42z" />
    <glyph glyph-name="oslash" unicode="&#xf8;" horiz-adv-x="568" 
d="M537 251q0 -49 -14.5 -96.5t-45 -85t-79.5 -60.5t-118 -23q-49 0 -86.5 12.5t-65.5 34.5l-52 -61l-34 28l54 64q-35 41 -49 91t-14 96q0 39 10.5 85.5t39.5 87t80 67.5t133 27q46 0 82.5 -12t65.5 -35l50 59l34 -28l-53 -62q31 -37 46.5 -85.5t15.5 -103.5zM397 417
q-20 32 -49 46t-66 14q-31 0 -58 -14t-46.5 -42.5t-30.5 -73.5t-11 -106q0 -29 3.5 -57.5t12.5 -54.5zM433 250q0 75 -16 122l-245 -287q17 -26 44 -42.5t67 -16.5q32 0 59.5 12t47.5 39t31.5 69.5t11.5 103.5z" />
    <glyph glyph-name="ugrave" unicode="&#xf9;" horiz-adv-x="627" 
d="M442 0q-1 3 -2 12.5t-2.5 20t-3 20.5t-1.5 16q-30 -40 -68.5 -62.5t-100.5 -22.5q-165 0 -165 184v237q0 31 -8 52.5t-36 18.5v8l141 31v-343q0 -23 4 -47.5t15.5 -44t31 -32t51.5 -12.5t56 13t40 34t24 47.5t8 54.5v223q0 9 -1.5 22t-6 24t-13 17.5t-21.5 4.5v8l138 31
v-404q0 -14 1.5 -32t6.5 -34t14.5 -26.5t24.5 -10.5v-8h-127zM192 748h113l69 -151h-63z" />
    <glyph glyph-name="uacute" unicode="&#xfa;" horiz-adv-x="627" 
d="M442 0q-1 3 -2 12.5t-2.5 20t-3 20.5t-1.5 16q-30 -40 -68.5 -62.5t-100.5 -22.5q-165 0 -165 184v237q0 31 -8 52.5t-36 18.5v8l141 31v-343q0 -23 4 -47.5t15.5 -44t31 -32t51.5 -12.5t56 13t40 34t24 47.5t8 54.5v223q0 9 -1.5 22t-6 24t-13 17.5t-21.5 4.5v8l138 31
v-404q0 -14 1.5 -32t6.5 -34t14.5 -26.5t24.5 -10.5v-8h-127zM306 597h-63l69 151h113z" />
    <glyph glyph-name="ucircumflex" unicode="&#xfb;" horiz-adv-x="635" 
d="M450 0q-1 3 -2 12.5t-2.5 20t-3 20.5t-1.5 16q-30 -40 -68.5 -62.5t-100.5 -22.5q-165 0 -165 184v237q0 31 -8 52.5t-36 18.5v8l141 31v-343q0 -23 4 -47.5t15.5 -44t31 -32t51.5 -12.5t56 13t40 34t24 47.5t8 54.5v223q0 9 -1.5 22t-6 24t-13 17.5t-21.5 4.5v8l138 31
v-404q0 -14 1.5 -32t6.5 -34t14.5 -26.5t24.5 -10.5v-8h-127zM374 597l-73 103l-72 -103h-48l60 150h120l62 -150h-49z" />
    <glyph glyph-name="udieresis" unicode="&#xfc;" horiz-adv-x="627" 
d="M442 0q-1 3 -2 12.5t-2.5 20t-3 20.5t-1.5 16q-30 -40 -68.5 -62.5t-100.5 -22.5q-165 0 -165 184v237q0 31 -8 52.5t-36 18.5v8l141 31v-343q0 -23 4 -47.5t15.5 -44t31 -32t51.5 -12.5t56 13t40 34t24 47.5t8 54.5v223q0 9 -1.5 22t-6 24t-13 17.5t-21.5 4.5v8l138 31
v-404q0 -14 1.5 -32t6.5 -34t14.5 -26.5t24.5 -10.5v-8h-127zM428 677q0 -23 -16 -39t-39 -16t-39.5 16t-16.5 39t16.5 39t39.5 16t39 -16t16 -39zM265 677q0 -23 -16.5 -39t-39.5 -16t-39 16t-16 39t16 39t39 16t39.5 -16t16.5 -39z" />
    <glyph glyph-name="yacute" unicode="&#xfd;" horiz-adv-x="478" 
d="M498 492q-12 -2 -22 -8.5t-18 -15.5t-13.5 -18t-8.5 -16l-246 -566q-11 -24 -25 -46t-31.5 -39t-38 -27t-43.5 -10q-37 0 -58 12v78h9q6 -14 19.5 -23t36.5 -9q26 0 47.5 22t40 55.5t34.5 73t31 74.5l-176 405q-14 33 -29.5 45t-32.5 13v8h197v-8q-10 -2 -18.5 -6
t-12.5 -14t-2.5 -26.5t12.5 -41.5l111 -268l127 304q11 27 0.5 39.5t-30.5 12.5v8h140v-8v0zM249 597h-63l69 151h113z" />
    <glyph glyph-name="thorn" unicode="&#xfe;" horiz-adv-x="616" 
d="M563 244q0 -55 -16 -102.5t-46.5 -82.5t-74.5 -55t-100 -20q-60 0 -97.5 21t-57.5 47v-131q0 -33 1 -63q0 -27 2.5 -44t8.5 -26.5t16 -14t25 -5.5v-11h-198v11q34 4 42.5 25t8.5 64v426v425q0 20 -1 37.5t-4.5 30.5t-11.5 19.5t-23 3.5l-3 11l134 29v-398q26 34 65 55.5
t100 21.5q112 0 171 -71.5t59 -202.5zM459 252q0 115 -37 169.5t-109 54.5q-29 0 -56.5 -12t-48.5 -38t-33.5 -68.5t-12.5 -102.5q0 -26 3.5 -65t18 -75t44.5 -62t83 -26q33 0 60 12.5t46.5 39.5t30.5 69.5t11 103.5z" />
    <glyph glyph-name="ydieresis" unicode="&#xff;" horiz-adv-x="478" 
d="M498 492q-12 -2 -22 -8.5t-18 -15.5t-13.5 -18t-8.5 -16l-246 -566q-11 -24 -25 -46t-31.5 -39t-38 -27t-43.5 -10q-37 0 -58 12v78h9q6 -14 19.5 -23t36.5 -9q26 0 47.5 22t40 55.5t34.5 73t31 74.5l-176 405q-14 33 -29.5 45t-32.5 13v8h197v-8q-10 -2 -18.5 -6
t-12.5 -14t-2.5 -26.5t12.5 -41.5l111 -268l127 304q11 27 0.5 39.5t-30.5 12.5v8h140v-8zM406 677q0 -23 -16 -39t-39 -16t-39.5 16t-16.5 39t16.5 39t39.5 16t39 -16t16 -39zM243 677q0 -23 -16.5 -39t-39.5 -16t-39 16t-16 39t16 39t39 16t39.5 -16t16.5 -39z" />
    <glyph glyph-name="dotlessi" unicode="&#x131;" horiz-adv-x="262" 
d="M44 0v8q10 3 18 5.5t12.5 10.5t7 24t2.5 45v295q0 28 -2 45t-6.5 26t-11.5 12t-17 3l-2 10l136 29v-423q0 -37 5 -56.5t34 -25.5v-8h-176z" />
    <glyph glyph-name="Lslash" unicode="&#x141;" horiz-adv-x="561" 
d="M536 0h-441v8q23 3 31.5 21t8.5 58v309l-97 -38v46l97 38v218q0 37 -10 56.5t-35 22.5v8h194v-8q-9 -1 -18 -4t-15.5 -11t-11 -22.5t-4.5 -39.5v-181l112 44v-46l-112 -44v-335q0 -21 4.5 -31.5t16.5 -14t34 -3.5h57q57 0 94 2.5t61.5 9.5t40 19t30.5 31l10 -5z" />
    <glyph glyph-name="lslash" unicode="&#x142;" horiz-adv-x="291" 
d="M192 440v-128v-222q0 -45 9 -62t31 -20v-8h-86h-92v8q10 3 18.5 6t14.5 11.5t9 24.5t3 43v310l-94 -37v47l94 37v249q0 52 -5.5 76t-33.5 23l-2 10l134 29v-43v-84.5v-108.5v-114l90 36v-47z" />
    <glyph glyph-name="OE" unicode="&#x152;" horiz-adv-x="1178" 
d="M1131 0h-395v154q-17 -37 -41.5 -68.5t-58.5 -54t-77.5 -35t-97.5 -12.5q-80 0 -140 20t-103 53t-71 74t-44 83t-22.5 80.5t-6.5 66.5q0 79 22 151.5t68.5 127.5t118 88t170.5 33q59 0 105 -13.5t80 -36t58 -53.5t40 -65v154h225h156l-14 -90l-10 1q-1 9 -4.5 16.5
t-17 12t-41.5 7t-78 2.5h-122v-289h115q52 0 81 1t43.5 5t19.5 10t9 17h11v-127h-11q-3 14 -11 22t-25 12t-45 5t-73 1h-114v-302h112q57 0 94 2.5t61.5 9.5t40 19t30.5 31l10 -5zM735 378q0 73 -19.5 134.5t-56 105t-89 68t-118.5 24.5q-55 0 -104.5 -20t-87 -62t-60 -106
t-22.5 -152q0 -56 14 -115t47 -108t86.5 -80.5t133.5 -31.5q60 0 111 23t87.5 66.5t57 107.5t20.5 146z" />
    <glyph glyph-name="oe" unicode="&#x153;" horiz-adv-x="942" 
d="M553 248q0 -38 6 -77.5t23 -71.5t47 -53t78 -21q32 0 59.5 8.5t49 21t36.5 26t23 22.5l5 -4l-16 -79q-15 -8 -36 -14.5t-43.5 -11.5t-45 -8t-39.5 -3q-43 0 -74.5 8.5t-54 23t-39 34t-29.5 42.5q-14 -23 -32 -42t-42.5 -33t-57 -22t-75.5 -8q-71 0 -118 26.5t-75 66.5
t-39 86t-11 85t10 85.5t38 87t78.5 68t132.5 27.5q66 0 112.5 -27.5t75.5 -71.5q57 98 177 98q61 0 103 -20.5t68 -56.5t37.5 -85t11.5 -106zM794 289q-4 103 -35.5 145.5t-83.5 42.5q-31 0 -53.5 -17t-37.5 -44t-22.5 -60.5t-7.5 -66.5h240zM454 250q0 62 -10 105t-30 70
t-49 39.5t-67 12.5q-31 0 -57.5 -14t-46 -42.5t-30.5 -73.5t-11 -106q0 -41 9.5 -80t28 -69t45.5 -48t63 -18q32 0 60.5 12t49.5 39t33 69.5t12 103.5z" />
    <glyph glyph-name="Scaron" unicode="&#x160;" horiz-adv-x="525" 
d="M515 182q0 -47 -19 -84t-50.5 -62.5t-73 -39t-87.5 -13.5q-33 0 -58.5 3.5t-43.5 7.5t-29 7.5t-16 3.5q-24 0 -30 -9l-12 -1l-22 164l9 5q8 -30 26.5 -54.5t45 -41.5t58.5 -26.5t67 -9.5q36 0 64.5 10t48 26.5t29.5 39t10 48.5q0 33 -10.5 55.5t-30 41t-47.5 36t-64 40.5
q-35 22 -69 44t-61 49.5t-44 63.5t-17 86q0 44 15.5 79t44 59t68 36.5t88.5 12.5q27 0 46 -3t32.5 -6.5t23.5 -6.5t20 -3q5 0 14.5 0.5t14.5 5.5h11l1 -151l-7 -3q-11 51 -51 85t-106 34q-37 0 -63 -10.5t-42 -27.5t-23 -38.5t-7 -43.5q0 -32 14.5 -55.5t38 -42.5t52 -35.5
t56.5 -35.5q20 -14 51.5 -32.5t61 -46.5t51 -67.5t21.5 -93.5zM200 979l74 -104l71 104h48l-59 -151h-120l-63 151h49z" />
    <glyph glyph-name="scaron" unicode="&#x161;" horiz-adv-x="464" 
d="M441 148q0 -39 -15 -69t-41.5 -51t-63 -32t-79.5 -11q-45 0 -80 10.5t-63 10.5q-16 0 -20 -6h-11v140h9q6 -24 22 -45t38.5 -36.5t50 -24t57.5 -8.5t53 7.5t38.5 20t24 28t8.5 30.5q0 28 -16.5 46t-40.5 30t-51.5 19.5t-49.5 15.5q-17 6 -42 15t-48 26t-39.5 42.5
t-16.5 64.5q0 35 14.5 62.5t39.5 46t56.5 28t66.5 9.5q26 0 45 -3.5t34.5 -7t28 -7t24.5 -3.5q5 0 13 2q4 1 7 2h7l12 -129l-9 -2q-6 19 -19 38t-32.5 34t-45.5 24t-58 9q-29 0 -49 -7t-32 -18t-17.5 -24.5t-5.5 -26.5q0 -21 9.5 -35t27 -25t42.5 -19.5t57 -18.5
q16 -5 43.5 -13t53 -24t44.5 -43.5t19 -71.5zM157 748l74 -104l71 104h48l-59 -151h-120l-63 151h49z" />
    <glyph glyph-name="Ydieresis" unicode="&#x178;" horiz-adv-x="616" 
d="M643 739q-24 -3 -38.5 -16.5t-30.5 -43.5l-206 -384v-233q0 -25 13.5 -38.5t27.5 -15.5v-8h-184v8q18 2 31 13.5t13 40.5v236l-237 405q-8 14 -22.5 23.5t-26.5 12.5v8h203v-8q-20 -3 -28 -18t6 -39l178 -327l169 327q9 16 8.5 27t-6 17t-12.5 9t-12 4v8h154v-8v0z
M468 876q0 -23 -16 -39t-39 -16t-39.5 16t-16.5 39t16.5 39t39.5 16t39 -16t16 -39zM305 876q0 -23 -16.5 -39t-39.5 -16t-39 16t-16 39t16 39t39 16t39.5 -16t16.5 -39z" />
    <glyph glyph-name="Zcaron" unicode="&#x17d;" horiz-adv-x="624" 
d="M541 0h-500l402 693h-307q-18 0 -29 -2.5t-17 -7.5t-8.5 -13t-3.5 -19h-9v96h511l-400 -691h232q23 0 47.5 2.5t47 9t41.5 17t31 27.5l9 -6zM243 979l74 -104l71 104h48l-59 -151h-120l-63 151h49z" />
    <glyph glyph-name="zcaron" unicode="&#x17e;" horiz-adv-x="478" 
d="M441 0h-422v14l307 441h-171q-14 0 -31.5 -1.5t-33 -8.5t-27 -20t-12.5 -35h-12v107h411v-11l-311 -443h127q29 0 58.5 1t55.5 9.5t46.5 26t31.5 50.5l9 -3zM192 748l74 -104l71 104h48l-59 -151h-120l-63 151h49z" />
    <glyph glyph-name="florin" unicode="&#x192;" 
d="M504 671h-12q0 16 -4.5 32.5t-14 29.5t-24 21t-33.5 8q-26 0 -43.5 -14.5t-28 -34.5t-15.5 -41.5t-8 -35.5l-33 -168h102l-8 -39h-102l-74 -375q-12 -60 -31 -114t-45.5 -95t-59.5 -65t-73 -24q-23 0 -38.5 3.5t-25.5 8.5q-11 5 -19 12v42h9q7 -9 17 -16q8 -6 19 -10.5
t25 -4.5q25 0 44 15t32.5 40t23 56.5t15.5 63.5l93 463h-79l8 39h79l26 128q7 34 21 69.5t37 64t54.5 47t72.5 18.5q38 0 60.5 -9t30.5 -14l14 8l9 -3z" />
    <glyph glyph-name="circumflex" unicode="&#x2c6;" horiz-adv-x="415" 
d="M280 597l-73 103l-72 -103h-48l60 150h120l62 -150h-49z" />
    <glyph glyph-name="caron" unicode="&#x2c7;" horiz-adv-x="415" 
d="M136 748l74 -104l71 104h48l-59 -151h-120l-63 151h49z" />
    <glyph glyph-name="breve" unicode="&#x2d8;" horiz-adv-x="422" 
d="M359 737q0 -21 -8.5 -43.5t-26 -41t-44 -30.5t-63.5 -12q-43 0 -72.5 13t-47.5 32.5t-26 41.5t-8 40h26q4 -30 38 -49t91 -19q54 0 84 19.5t34 48.5h23v0z" />
    <glyph glyph-name="dotaccent" unicode="&#x2d9;" horiz-adv-x="298" 
d="M208 675q0 -24 -17 -41.5t-42 -17.5t-42 17.5t-17 41.5q0 25 17 42t42 17t42 -17t17 -42z" />
    <glyph glyph-name="ring" unicode="&#x2da;" horiz-adv-x="411" 
d="M322 693q0 -24 -9 -44t-25 -35t-37.5 -23t-45.5 -8t-45 8t-37 23t-25 35t-9 44t9 45.5t25 37.5t37 25t45 9t45.5 -9t37.5 -25t25 -37.5t9 -45.5zM280 693q0 32 -21.5 56.5t-53.5 24.5q-31 0 -52.5 -24.5t-21.5 -56.5q0 -31 21.5 -52.5t52.5 -21.5q32 0 53.5 21.5
t21.5 52.5z" />
    <glyph glyph-name="ogonek" unicode="&#x2db;" horiz-adv-x="320" 
d="M243 8q-26 -18 -46 -37q-17 -17 -31 -38.5t-14 -44.5q0 -25 12 -43.5t26 -32.5q17 -16 38 -27l-73 -37q-20 15 -35 34q-14 16 -24.5 38t-10.5 48q0 29 14 52.5t32 41.5t36 29.5t27 16.5h49v0z" />
    <glyph glyph-name="tilde" unicode="&#x2dc;" horiz-adv-x="502" 
d="M439 716q-25 -36 -49.5 -63.5t-57.5 -27.5q-16 0 -39.5 4.5t-49.5 10t-50.5 10t-41.5 4.5q-21 0 -34 -8.5t-30 -34.5l-23 9q33 49 57 76.5t54 27.5q17 0 41.5 -4.5t50 -10.5t50 -10.5t41.5 -4.5q15 0 28 5t30 27l23 -10v0z" />
    <glyph glyph-name="hungarumlaut" unicode="&#x2dd;" horiz-adv-x="481" 
d="M309 570h-68l70 178h109zM147 570h-68l70 178h109z" />
    <glyph glyph-name="uni0394" unicode="&#x394;" horiz-adv-x="612" 
 />
    <glyph glyph-name="uni0394" unicode="&#x2206;" horiz-adv-x="612" 
 />
    <glyph glyph-name="uni03A9" unicode="&#x3a9;" horiz-adv-x="768" 
 />
    <glyph glyph-name="uni03A9" unicode="&#x2126;" horiz-adv-x="768" 
 />
    <glyph glyph-name="pi" unicode="&#x3c0;" horiz-adv-x="549" 
 />
    <glyph glyph-name="endash" unicode="&#x2013;" horiz-adv-x="606" 
d="M95 224v52h416v-52h-416z" />
    <glyph glyph-name="emdash" unicode="&#x2014;" horiz-adv-x="902" 
d="M95 224v52h712v-52h-712z" />
    <glyph glyph-name="quoteleft" unicode="&#x2018;" horiz-adv-x="296" 
d="M34 748h111l93 -217h-68z" />
    <glyph glyph-name="quoteright" unicode="&#x2019;" horiz-adv-x="295" 
d="M126 528h-68l93 218h110z" />
    <glyph glyph-name="quotesinglbase" unicode="&#x201a;" horiz-adv-x="271" 
d="M96 -134h-70l80 203h111z" />
    <glyph glyph-name="quotedblleft" unicode="&#x201c;" horiz-adv-x="457" 
d="M195 747h111l93 -217h-68zM34 746h111l93 -217h-68z" />
    <glyph glyph-name="quotedblright" unicode="&#x201d;" horiz-adv-x="456" 
d="M126 529h-68l93 217h111zM287 528h-68l93 218h110z" />
    <glyph glyph-name="quotedblbase" unicode="&#x201e;" horiz-adv-x="473" 
d="M276 -135h-70l80 203h111zM117 -135h-70l80 203h111z" />
    <glyph glyph-name="dagger" unicode="&#x2020;" horiz-adv-x="519" 
d="M299 441l-14 -671h-46l-14 671l-179 -1v60l178 -1l-5 248h86l-5 -248l175 1v-60z" />
    <glyph glyph-name="daggerdbl" unicode="&#x2021;" horiz-adv-x="519" 
d="M293 160l-8 -390h-46l-8 390l-185 -1v60l184 -1l-5 223l-179 -1v60l178 -1l-5 248h86l-5 -248l175 1v-60l-176 1l-5 -223l181 1v-60z" />
    <glyph glyph-name="bullet" unicode="&#x2022;" horiz-adv-x="295" 
d="M203 331q-13 -23 -29 -42q-14 -17 -33 -32t-42 -21l-3 3q8 23 11 44q2 18 -1 36.5t-17 29.5l4 5q21 -1 41 -3q17 -2 35.5 -5.5t32.5 -9.5z" />
    <glyph glyph-name="ellipsis" unicode="&#x2026;" horiz-adv-x="758" 
d="M698 43q0 -24 -17.5 -41.5t-41.5 -17.5q-25 0 -42 17.5t-17 41.5q0 25 17 42t42 17q24 0 41.5 -17t17.5 -42zM441 43q0 -24 -17.5 -41.5t-41.5 -17.5q-25 0 -42 17.5t-17 41.5q0 25 17 42t42 17q24 0 41.5 -17t17.5 -42zM178 43q0 -24 -17.5 -41.5t-41.5 -17.5
q-25 0 -42 17.5t-17 41.5q0 25 17 42t42 17q24 0 41.5 -17t17.5 -42z" />
    <glyph glyph-name="perthousand" unicode="&#x2030;" horiz-adv-x="1631" 
d="M1097 242q0 -61 -15 -109.5t-42 -82t-64.5 -51.5t-82.5 -18q-44 0 -79.5 20.5t-61 56t-39.5 82t-14 98.5q0 46 10.5 93t34.5 84t62 60.5t92 23.5q50 0 87.5 -22t62 -58t37 -82.5t12.5 -94.5zM417 -54h-68l379 854h69zM436 496q0 -61 -15 -109.5t-42 -82t-64.5 -51.5
t-82.5 -18q-44 0 -79.5 20.5t-61 56t-39.5 82t-14 98.5q0 46 10.5 93t34.5 84t62 60.5t92 23.5q50 0 87.5 -22t62 -58t37 -82.5t12.5 -94.5zM1006 231q0 121 -29.5 175t-79.5 54t-79 -53t-29 -170q0 -66 10 -108t25.5 -66t35 -33t38.5 -9q26 0 46.5 15.5t34 43t20.5 66
t7 85.5zM345 485q0 121 -29.5 175t-79.5 54t-79 -53t-29 -170q0 -66 10 -108t25.5 -66t35 -33t38.5 -9q26 0 46.5 15.5t34 43t20.5 66t7 85.5zM1580 245q0 -61 -15 -109.5t-42 -82t-64.5 -51.5t-82.5 -18q-44 0 -79.5 20.5t-61 56t-39.5 82t-14 98.5q0 46 10.5 93t34.5 84
t62 60.5t92 23.5q50 0 87.5 -22t62 -58t37 -82.5t12.5 -94.5zM1489 234q0 121 -29.5 175t-79.5 54t-79 -53t-29 -170q0 -66 10 -108t25.5 -66t35 -33t38.5 -9q26 0 46.5 15.5t34 43t20.5 66t7 85.5z" />
    <glyph glyph-name="guilsinglleft" unicode="&#x2039;" horiz-adv-x="285" 
d="M184 124l-152 150l152 154h46l-95 -154l95 -150h-46z" />
    <glyph glyph-name="guilsinglright" unicode="&#x203a;" horiz-adv-x="285" 
d="M101 124h-46l95 150l-95 154h46l152 -154z" />
    <glyph glyph-name="fraction" unicode="&#x2044;" horiz-adv-x="696" 
d="M120 -13h-63l519 772h63z" />
    <glyph glyph-name="Euro" unicode="&#x20ac;" horiz-adv-x="657" 
d="M31 452h66q11 63 35.5 114t60.5 87.5t81.5 56t99.5 19.5q51 0 92.5 -15.5t72 -43t50 -65t25.5 -82.5h-94q-12 58 -48.5 91t-98.5 33q-75 0 -118.5 -52t-57.5 -143h203v-57h-209q-1 -10 -1 -20v-20v-21t1 -20h209v-57h-202q16 -94 63 -142t120 -48q69 0 107 45t46 114h90
q-2 -50 -19.5 -94t-49 -76.5t-75.5 -51.5t-98 -19t-101 18t-84 53t-63 85.5t-37 115.5h-66v57h59q-1 10 -1 20v21v20t1 20h-59v57z" />
    <glyph glyph-name="trademark" unicode="&#x2122;" horiz-adv-x="865" 
d="M682 368v9q13 2 20 14.5t5 27.5l-30 266l-123 -325h-6l-123 327l-30 -269q-2 -19 9.5 -29t20.5 -12v-9h-97v9q11 1 22 11.5t13 30.5l32 297q2 17 -16 20v9h84l101 -270l101 270h84v-9q-8 -2 -14 -7t-4 -22l34 -295q1 -7 8.5 -20.5t22.5 -16.5v-7h-114zM317 691h-10
q-3 14 -18.5 18.5t-31.5 4.5h-68v-293q0 -26 9 -34t23 -10v-9h-118v9q30 3 30 43v294h-44q-25 0 -38.5 -2t-20 -5t-8 -7.5t-2.5 -8.5h-10l-13 54h332z" />
    <glyph glyph-name="partialdiff" unicode="&#x2202;" horiz-adv-x="494" 
 />
    <glyph glyph-name="product" unicode="&#x220f;" horiz-adv-x="823" 
 />
    <glyph glyph-name="summation" unicode="&#x2211;" horiz-adv-x="804" 
d="M697 397q2 -10 3 -18.5t0 -19.5q0 -43 -8 -76t-19 -58.5t-23.5 -43.5t-21.5 -30q15 -13 39.5 -36.5t52 -46.5t54 -41t44.5 -19v-8h-141l-100 90q-14 -14 -36.5 -32t-54 -34.5t-72.5 -27.5t-93 -11q-45 0 -94 10.5t-90.5 35.5t-68.5 67.5t-27 107.5q0 60 20 101t47.5 68
t58 43t51.5 25q-5 9 -15.5 22.5t-21 31.5t-18.5 41t-8 53q0 32 10.5 62.5t33.5 53.5t60.5 40t91.5 17q29 0 53.5 -5.5t44.5 -5.5q9 0 13.5 0.5t6.5 2t3.5 3t3.5 4.5h12l15 -138l-18 -4q-12 33 -29.5 52.5t-36 29.5t-35.5 12.5t-28 2.5q-54 0 -86 -29t-32 -86q0 -31 24 -71
t58 -80t69 -75t58 -57q29 -28 64 -61t73 -66q13 24 26 58.5t13 82.5q0 42 -13 54.5t-44 12.5q-23 0 -38 -10t-24 -24l-14 14q2 5 8.5 20.5t21.5 30.5q8 8 20 13t25 8t26 4t23 0h174q6 0 15.5 0.5t20 1.5t20 2t15.5 3l5 -15q-25 -28 -59 -40t-67 -12h-41zM528 129
q-33 27 -71.5 63t-80.5 77q-37 35 -70 69t-56 63q-14 -8 -35 -21t-40 -34.5t-32.5 -53t-13.5 -76.5q0 -25 10 -57t32.5 -60t59 -47t89.5 -19q39 0 73.5 11t62 26t46.5 31.5t26 27.5z" />
    <glyph glyph-name="minus" unicode="&#x2212;" horiz-adv-x="534" 
d="M54 222v54h427v-54h-427z" />
    <glyph glyph-name="radical" unicode="&#x221a;" horiz-adv-x="549" 
 />
    <glyph glyph-name="infinity" unicode="&#x221e;" horiz-adv-x="713" 
 />
    <glyph glyph-name="integral" unicode="&#x222b;" horiz-adv-x="274" 
 />
    <glyph glyph-name="approxequal" unicode="&#x2248;" horiz-adv-x="549" 
 />
    <glyph glyph-name="notequal" unicode="&#x2260;" horiz-adv-x="549" 
 />
    <glyph glyph-name="lessequal" unicode="&#x2264;" horiz-adv-x="549" 
 />
    <glyph glyph-name="greaterequal" unicode="&#x2265;" horiz-adv-x="549" 
 />
    <glyph glyph-name="lozenge" unicode="&#x25ca;" horiz-adv-x="494" 
 />
    <glyph glyph-name="uniFB01" unicode="&#xfb01;" horiz-adv-x="581" 
d="M363 0v8q10 3 18 5.5t12.5 10.5t7 24t2.5 45v295q0 29 -2 46t-15 24h-194v-331q0 -11 0.5 -30t4.5 -38.5t13 -34t26 -16.5v-8h-178v8q18 1 27 11.5t12.5 26.5t4 36t0.5 41v335h-94v42h94v122q0 34 12 71.5t38.5 68t67.5 50.5t99 20q39 0 72.5 -9t57.5 -25t38 -36.5
t14 -44.5q0 -31 -19 -45t-37 -14q-7 0 -16 2.5t-17.5 8.5t-14 16.5t-5.5 27.5t6 26.5t11 14.5q-5 7 -15 14t-23 12t-28 8.5t-28 3.5q-54 0 -88.5 -36t-34.5 -106v-150h247l61 13v-423q0 -37 5 -56.5t34 -25.5v-8h-176z" />
    <glyph glyph-name="uniFB02" unicode="&#xfb02;" horiz-adv-x="584" 
d="M357 0v8q7 1 13 4.5t11 12.5t8 25t3 43v586q0 18 -0.5 33t-1.5 28q-14 19 -35.5 31.5t-53.5 12.5q-42 0 -64 -17t-32 -38t-11.5 -38.5l-1.5 -17.5v-173h134v-42h-134v-331v-50t3.5 -36t13 -23t27.5 -10v-8h-178v8q16 3 25 12.5t13.5 24.5t5 35t0.5 43v335h-94v42h94v150
q0 29 7.5 61t28 59t55.5 44.5t90 17.5q42 0 68.5 -10t37.5 -17l96 21v-736q0 -45 9 -62t31 -20v-8h-168z" />
    <glyph glyph-name="glyph228" horiz-adv-x="790" 
 />
  </font>
</defs>
</svg>
